<svg width="137" height="137" viewBox="0 0 137 137" fill="none" xmlns="http://www.w3.org/2000/svg">
<path d="M68.5 0C87.1114 0 89.4336 0.0684996 96.7357 0.411C104.031 0.7535 108.997 1.89745 113.367 3.59625C117.888 5.33615 121.697 7.69255 125.506 11.4943C128.989 14.9186 131.684 19.0607 133.404 23.6325C135.096 27.9959 136.247 32.969 136.589 40.2643C136.911 47.5664 137 49.8885 137 68.5C137 87.1114 136.932 89.4336 136.589 96.7357C136.247 104.031 135.096 108.997 133.404 113.367C131.689 117.942 128.993 122.085 125.506 125.506C122.08 128.988 117.939 131.683 113.367 133.404C109.004 135.096 104.031 136.247 96.7357 136.589C89.4336 136.911 87.1114 137 68.5 137C49.8885 137 47.5664 136.932 40.2643 136.589C32.969 136.247 28.0028 135.096 23.6325 133.404C19.0589 131.688 14.9161 128.992 11.4943 125.506C8.01043 122.082 5.31513 117.94 3.59625 113.367C1.89745 109.004 0.7535 104.031 0.411 96.7357C0.0890496 89.4336 0 87.1114 0 68.5C0 49.8885 0.0684996 47.5664 0.411 40.2643C0.7535 32.9622 1.89745 28.0028 3.59625 23.6325C5.31037 19.0579 8.0063 14.9146 11.4943 11.4943C14.917 8.00923 19.0596 5.31375 23.6325 3.59625C28.0028 1.89745 32.9622 0.7535 40.2643 0.411C47.5664 0.0890496 49.8885 0 68.5 0ZM68.5 34.25C59.4163 34.25 50.7047 37.8585 44.2816 44.2816C37.8585 50.7047 34.25 59.4163 34.25 68.5C34.25 77.5837 37.8585 86.2953 44.2816 92.7184C50.7047 99.1415 59.4163 102.75 68.5 102.75C77.5837 102.75 86.2953 99.1415 92.7184 92.7184C99.1415 86.2953 102.75 77.5837 102.75 68.5C102.75 59.4163 99.1415 50.7047 92.7184 44.2816C86.2953 37.8585 77.5837 34.25 68.5 34.25V34.25ZM113.025 32.5375C113.025 30.2666 112.123 28.0887 110.517 26.4829C108.911 24.8771 106.733 23.975 104.462 23.975C102.192 23.975 100.014 24.8771 98.4079 26.4829C96.8021 28.0887 95.9 30.2666 95.9 32.5375C95.9 34.8084 96.8021 36.9863 98.4079 38.5921C100.014 40.1979 102.192 41.1 104.462 41.1C106.733 41.1 108.911 40.1979 110.517 38.5921C112.123 36.9863 113.025 34.8084 113.025 32.5375ZM68.5 47.95C73.9502 47.95 79.1772 50.1151 83.031 53.969C86.8849 57.8228 89.05 63.0498 89.05 68.5C89.05 73.9502 86.8849 79.1772 83.031 83.031C79.1772 86.8849 73.9502 89.05 68.5 89.05C63.0498 89.05 57.8228 86.8849 53.969 83.031C50.1151 79.1772 47.95 73.9502 47.95 68.5C47.95 63.0498 50.1151 57.8228 53.969 53.969C57.8228 50.1151 63.0498 47.95 68.5 47.95V47.95Z" fill="white"/>
</svg>
