<svg width="118" height="47" viewBox="0 0 118 47" fill="none" xmlns="http://www.w3.org/2000/svg">
<g id="Logo" clip-path="url(#clip0_29_2364)">
<g id="Group">
<path id="Vector" d="M65.1314 38.8074C65.6209 38.8074 66.0228 38.6288 66.3427 38.2742L66.9251 39.5513C66.6927 39.7485 66.4083 39.9058 66.0775 40.0178C65.7466 40.1298 65.4185 40.1858 65.0932 40.1858C64.2647 40.1858 63.5565 39.9165 62.966 39.3753C62.3754 38.8341 62.0828 38.1862 62.0828 37.4291C62.0828 36.6719 62.3781 36.0214 62.966 35.4828C63.5565 34.9416 64.2647 34.6724 65.0932 34.6724C65.4158 34.6724 65.7439 34.7283 66.0775 34.8377C66.4083 34.947 66.6927 35.1016 66.9251 35.2989L66.3427 36.5839C66.0255 36.2293 65.6209 36.0507 65.1314 36.0507C64.7131 36.0507 64.3549 36.184 64.0569 36.4533C63.7589 36.7226 63.6112 37.0478 63.6112 37.4291C63.6112 37.8103 63.7589 38.1356 64.0569 38.4048C64.3549 38.6741 64.7131 38.8074 65.1314 38.8074Z" fill="#020202"/>
<path id="Vector_2" d="M67.8875 35.4773C68.4617 34.9387 69.1507 34.6694 69.9573 34.6694C70.7639 34.6694 71.4557 34.9387 72.0271 35.4773C72.6013 36.0158 72.8884 36.6663 72.8884 37.4288C72.8884 38.1913 72.6013 38.8418 72.0271 39.3804C71.4529 39.9189 70.7639 40.1882 69.9573 40.1882C69.1507 40.1882 68.459 39.9189 67.8875 39.3804C67.3133 38.8418 67.0262 38.1913 67.0262 37.4288C67.0262 36.6663 67.3133 36.0158 67.8875 35.4773ZM68.9675 38.4046C69.241 38.6739 69.5718 38.8072 69.96 38.8072C70.3483 38.8072 70.6791 38.6739 70.9526 38.4046C71.226 38.1353 71.3627 37.8101 71.3627 37.4288C71.3627 37.0476 71.226 36.7223 70.9526 36.453C70.6791 36.1838 70.3483 36.0505 69.96 36.0505C69.5718 36.0505 69.241 36.1838 68.9675 36.453C68.6941 36.7223 68.5574 37.0476 68.5574 37.4288C68.5574 37.8101 68.6941 38.1353 68.9675 38.4046Z" fill="#020202"/>
<path id="Vector_3" d="M75.2863 36.621C75.5406 36.653 75.7593 36.6876 75.9425 36.7223C76.1257 36.7596 76.3335 36.8183 76.5631 36.9036C76.7928 36.9862 76.9815 37.0876 77.1237 37.2022C77.2658 37.3168 77.3889 37.4715 77.49 37.6688C77.5912 37.8634 77.6404 38.09 77.6404 38.3459C77.6404 38.8951 77.4408 39.3377 77.0444 39.679C76.6452 40.0176 76.0382 40.1882 75.2207 40.1882C74.9554 40.1882 74.6957 40.1615 74.4414 40.1055C74.1871 40.0495 73.9711 39.9856 73.7961 39.9109C73.6211 39.8363 73.4653 39.7589 73.3313 39.6843C73.1973 39.6096 73.0934 39.543 73.0251 39.4843L72.9294 39.407L73.4954 38.2073C73.7278 38.3859 73.9903 38.5246 74.2801 38.6259C74.5699 38.7272 74.7996 38.7832 74.9691 38.7938L75.2234 38.8098C75.8167 38.8312 76.1147 38.7245 76.1147 38.4872C76.1147 38.3833 76.0491 38.3086 75.9206 38.2633C75.7894 38.218 75.5296 38.1646 75.1359 38.1033C73.7497 37.89 73.0579 37.3142 73.0579 36.3784C73.0579 35.8825 73.2548 35.4746 73.6485 35.152C74.0422 34.8321 74.6137 34.6694 75.3683 34.6694C75.464 34.6694 75.5898 34.6748 75.7456 34.6854C75.9015 34.6961 76.1612 34.7521 76.5249 34.8587C76.8885 34.9627 77.1756 35.1093 77.3889 35.2986L76.7846 36.4264C76.7463 36.3997 76.6917 36.3651 76.6178 36.3251C76.544 36.2824 76.3718 36.2264 76.1038 36.1571C75.8359 36.0878 75.5433 36.0505 75.2234 36.0505C74.7996 36.0505 74.5863 36.1331 74.5863 36.3011C74.5863 36.389 74.6328 36.4557 74.7285 36.501C74.8242 36.5437 75.0101 36.5863 75.2863 36.621Z" fill="#020202"/>
<path id="Vector_4" d="M77.6814 34.7949H82.0124V36.1733H80.6098V40.0604H79.0814V36.1733H77.6787V34.7949H77.6814Z" fill="#020202"/>
<path id="Vector_5" d="M84.938 34.7949L87.0461 40.0604H85.597L85.2552 39.1833H83.1854L82.8436 40.0604H81.2906L83.5053 34.7949H84.938ZM83.6365 38.0555H84.815L84.2271 36.5492L83.6365 38.0555Z" fill="#020202"/>
<path id="Vector_6" d="M92.7961 38.2901L94.1113 40.0604H92.3286L91.2212 38.4314H90.9259V40.0604H89.3975V34.7949H91.8173C92.4926 34.7949 93.0012 34.9549 93.343 35.2721C93.6847 35.5921 93.857 36.016 93.857 36.5492C93.857 36.9464 93.764 37.301 93.5781 37.6103C93.3922 37.9249 93.1324 38.1488 92.7961 38.2901ZM91.6751 37.1784C91.8665 37.1784 92.0223 37.1304 92.1454 37.0371C92.2684 36.9438 92.3286 36.8025 92.3286 36.6132C92.3286 36.4292 92.2684 36.2906 92.1454 36.1946C92.0223 36.0986 91.8665 36.0506 91.6751 36.0506H90.9259V37.1784H91.6751Z" fill="#020202"/>
<path id="Vector_7" d="M95.9979 40.0604H94.4695V34.7949H95.9979V40.0604Z" fill="#020202"/>
<path id="Vector_8" d="M99.4074 38.8069C99.8968 38.8069 100.299 38.6283 100.619 38.2737L101.201 39.5508C100.969 39.7481 100.684 39.9054 100.353 40.0173C100.023 40.1293 99.6945 40.1853 99.3691 40.1853C98.5407 40.1853 97.8325 39.916 97.2419 39.3748C96.6513 38.8336 96.3588 38.1857 96.3588 37.4286C96.3588 36.6714 96.6541 36.0209 97.2419 35.4824C97.8325 34.9411 98.5407 34.6719 99.3691 34.6719C99.6918 34.6719 100.02 34.7279 100.353 34.8372C100.684 34.9465 100.969 35.1011 101.201 35.2984L100.619 36.5834C100.301 36.2289 99.8968 36.0502 99.4074 36.0502C98.9891 36.0502 98.6309 36.1835 98.3329 36.4528C98.0348 36.7221 97.8872 37.0473 97.8872 37.4286C97.8872 37.8098 98.0348 38.1351 98.3329 38.4044C98.6282 38.6736 98.9863 38.8069 99.4074 38.8069Z" fill="#020202"/>
<path id="Vector_9" d="M104.758 34.7949L106.866 40.0604H105.417L105.075 39.1833H103.006L102.664 40.0604H101.111L103.326 34.7949H104.758ZM103.457 38.0555H104.635L104.047 36.5492L103.457 38.0555Z" fill="#020202"/>
</g>
<g id="Group_2">
<path id="Vector_10" d="M66.9005 15.5591H67.1848L68.8144 17.8999L70.444 15.5591H70.7284V19.5155H70.4276V16.079L68.8226 18.3558H68.8008L67.1958 16.079V19.5155H66.906V15.5591H66.9005Z" fill="#020202"/>
<path id="Vector_11" d="M73.3997 19.5848C73.0907 19.5848 72.8118 19.5288 72.563 19.4169C72.3142 19.3049 72.1009 19.1556 71.9232 18.9716C71.7455 18.785 71.6088 18.569 71.5103 18.3238C71.4146 18.0785 71.3654 17.8199 71.3654 17.5506V17.5399C71.3654 17.268 71.4146 17.0094 71.5131 16.7615C71.6115 16.5135 71.751 16.2976 71.9287 16.1083C72.1064 15.919 72.3197 15.7697 72.5712 15.6577C72.8228 15.5457 73.1016 15.4897 73.4106 15.4897C73.7168 15.4897 73.993 15.5457 74.2445 15.6577C74.4961 15.7697 74.7094 15.919 74.8871 16.1029C75.0648 16.2869 75.2015 16.5055 75.2999 16.7508C75.3956 16.9961 75.4449 17.2547 75.4449 17.524C75.4476 17.5266 75.4476 17.5319 75.4449 17.5346C75.4449 17.8066 75.3956 18.0652 75.2972 18.3131C75.1988 18.5611 75.0593 18.777 74.8816 18.9663C74.7039 19.1556 74.4879 19.3049 74.2363 19.4169C73.9821 19.5288 73.7032 19.5848 73.3997 19.5848ZM73.4106 19.3182C73.6622 19.3182 73.8918 19.2729 74.1024 19.1796C74.3129 19.0863 74.4934 18.961 74.6465 18.801C74.7996 18.641 74.9172 18.4544 75.0019 18.2385C75.0867 18.0225 75.1304 17.7932 75.1304 17.5479V17.5373C75.1304 17.292 75.0867 17.0627 74.9992 16.8441C74.9117 16.6282 74.7914 16.4389 74.641 16.2789C74.4879 16.1189 74.3047 15.991 74.0942 15.8977C73.8809 15.8043 73.6485 15.7564 73.3997 15.7564C73.1481 15.7564 72.9185 15.8017 72.7079 15.895C72.4974 15.9883 72.3169 16.1136 72.1638 16.2736C72.0107 16.4335 71.8931 16.6202 71.8084 16.8361C71.7236 17.0521 71.6799 17.2813 71.6799 17.5266V17.5373C71.6799 17.7826 71.7236 18.0118 71.8111 18.2305C71.8986 18.4464 72.0189 18.6357 72.1693 18.7957C72.3224 18.9556 72.5056 19.0836 72.7161 19.1769C72.9267 19.2702 73.1591 19.3182 73.4106 19.3182Z" fill="#020202"/>
<path id="Vector_12" d="M75.7347 15.5591H76.071L77.6596 19.1983L79.2536 15.5591H79.5735L77.7881 19.5448H77.5201L75.7347 15.5591Z" fill="#020202"/>
<path id="Vector_13" d="M80.0821 15.5591H80.3828V19.5155H80.0821V15.5591Z" fill="#020202"/>
<path id="Vector_14" d="M81.2414 15.5591H81.5257L83.1553 17.8999L84.7849 15.5591H85.0693V19.5155H84.7685V16.079L83.1635 18.3558H83.1416L81.5367 16.079V19.5155H81.2468V15.5591H81.2414Z" fill="#020202"/>
<path id="Vector_15" d="M85.9251 15.5591H86.2258V19.5155H85.9251V15.5591Z" fill="#020202"/>
<path id="Vector_16" d="M87.0844 15.5591H89.9717V15.8257H87.3851V17.3907H89.7092V17.6573H87.3851V19.2516H89.999V19.5182H87.0844V15.5591Z" fill="#020202"/>
<path id="Vector_17" d="M90.5814 15.5591H90.8658L93.6656 19.001V15.5591H93.9554V19.5155H93.7285L90.8712 15.999V19.5155H90.5814V15.5591Z" fill="#020202"/>
<path id="Vector_18" d="M95.8967 15.8257H94.4831V15.5591H97.6111V15.8257H96.1975V19.5155H95.8967V15.8257Z" fill="#020202"/>
<path id="Vector_19" d="M99.9953 19.5848C99.6863 19.5848 99.4074 19.5288 99.1586 19.4169C98.9098 19.3049 98.6965 19.1556 98.5188 18.9716C98.3411 18.785 98.2044 18.569 98.1059 18.3238C98.0102 18.0785 97.961 17.8199 97.961 17.5506V17.5399C97.961 17.268 98.0102 17.0094 98.1087 16.7615C98.2071 16.5135 98.3466 16.2976 98.5243 16.1083C98.702 15.919 98.9153 15.7697 99.1668 15.6577C99.4184 15.5457 99.6973 15.4897 100.006 15.4897C100.312 15.4897 100.589 15.5457 100.84 15.6577C101.092 15.7697 101.305 15.919 101.483 16.1029C101.66 16.2869 101.797 16.5055 101.896 16.7508C101.991 16.9961 102.04 17.2547 102.04 17.524C102.043 17.5266 102.043 17.5319 102.04 17.5346C102.04 17.8066 101.991 18.0652 101.893 18.3131C101.794 18.5611 101.655 18.777 101.477 18.9663C101.299 19.1556 101.083 19.3049 100.832 19.4169C100.58 19.5288 100.299 19.5848 99.9953 19.5848ZM100.006 19.3182C100.258 19.3182 100.487 19.2729 100.698 19.1796C100.909 19.0863 101.089 18.961 101.242 18.801C101.395 18.641 101.513 18.4544 101.598 18.2385C101.682 18.0225 101.726 17.7932 101.726 17.5479V17.5373C101.726 17.292 101.682 17.0627 101.595 16.8441C101.507 16.6282 101.387 16.4389 101.237 16.2789C101.083 16.1189 100.9 15.991 100.69 15.8977C100.476 15.8043 100.244 15.7564 99.9953 15.7564C99.7437 15.7564 99.5141 15.8017 99.3035 15.895C99.093 15.9883 98.9125 16.1136 98.7594 16.2736C98.6063 16.4335 98.4887 16.6202 98.404 16.8361C98.3192 17.0521 98.2755 17.2813 98.2755 17.5266V17.5373C98.2755 17.7826 98.3192 18.0118 98.4067 18.2305C98.4942 18.4464 98.6145 18.6357 98.7649 18.7957C98.918 18.9556 99.1012 19.0836 99.3117 19.1769C99.5223 19.2702 99.7547 19.3182 100.006 19.3182Z" fill="#020202"/>
</g>
<g id="Group_3">
<path id="Vector_20" d="M33.2233 21.4728C35.1099 20.5157 37.0922 18.7241 37.557 16.6206C37.6089 16.3433 37.598 16.066 37.516 15.7941C37.3164 15.1169 36.7367 14.6103 36.1051 14.3037C35.1454 13.8399 34.008 13.7812 32.9635 13.9572C28.3974 15.0289 26.1663 18.0416 25.398 22.2673C28.0256 22.9391 30.7707 22.7152 33.2233 21.4728Z" fill="#118546"/>
<path id="Vector_21" d="M39.3206 4.9832C33.6115 3.68216 27.9053 6.98808 26.2894 12.4135C26.2565 12.6028 26.221 12.7921 26.18 12.9841C26.169 13.0294 26.1581 13.0774 26.1472 13.1227H26.1499L25.3132 16.8712C25.2804 17.5643 25.1519 18.2682 24.9851 18.9854C26.3741 15.6634 28.9443 13.5679 32.6983 12.6988C36.5371 12.0296 39.3479 14.3064 38.8557 16.8765C38.0574 20.5477 33.2151 24.4081 27.2026 23.8856C29.2614 24.3761 31.3695 24.6721 33.2069 25.4932L35.1728 25.9411V25.9438C35.2712 25.9678 35.3669 25.9971 35.4653 26.0238C40.972 26.7009 46.2244 23.2271 47.515 17.8416C48.8903 12.0829 45.2237 6.32689 39.3206 4.9832Z" fill="#118546"/>
<path id="Vector_22" d="M25.0535 36.6985C27.1233 39.0206 30.6723 39.6018 33.4365 37.9275C36.2254 36.2399 37.259 32.8353 35.993 29.98C33.5705 34.7042 29.7481 36.7864 25.0535 36.6985Z" fill="#E01D31"/>
<path id="Vector_23" d="M23.5114 33.3979C23.6044 34.0831 23.8122 34.7629 24.1758 35.4428C28.9224 35.5547 32.7831 33.4619 35.2193 28.679C34.7517 28.0684 34.2076 27.5939 33.6088 27.21C31.2765 31.377 27.7713 33.3179 23.5114 33.3979Z" fill="#E01D31"/>
<path id="Vector_24" d="M34.1857 25.7892L33.5295 25.6426C34.749 26.2424 35.8372 27.1009 36.6957 28.4499C38.6944 31.5879 38.0956 35.5843 35.4735 38.0504L35.4571 39.4848L35.438 41.0684L33.9725 40.3832L32.6464 39.762C29.2177 40.9591 25.2777 39.7114 23.2817 36.5708C22.3712 35.1418 22.0759 33.7287 22.1006 32.3157L21.7615 33.7261H21.7642C21.7533 33.7714 21.7396 33.8167 21.7287 33.8647C20.3507 39.6207 24.0172 45.3741 29.9176 46.7205C35.8208 48.0642 41.7212 44.489 43.102 38.7356C44.4363 33.1635 41.0404 27.5915 35.4626 26.0238C35.0853 25.9785 34.7052 25.9119 34.3279 25.8265C34.2787 25.8105 34.2322 25.7999 34.1857 25.7892Z" fill="#E01D31"/>
<path id="Vector_25" d="M32.4304 26.5967C30.2348 25.6636 27.5307 25.4849 24.9687 24.6265C24.5859 27.3858 23.5524 29.8066 23.4567 32.1101C27.1616 31.8435 30.2512 30.0919 32.4304 26.5967Z" fill="#E01D31"/>
<path id="Vector_26" d="M35.17 25.9357L33.2041 25.4878C33.3135 25.5358 33.4229 25.5864 33.5295 25.6398L34.1857 25.7891V25.7864C34.2322 25.7971 34.2787 25.8104 34.3279 25.8211C34.7052 25.9064 35.0853 25.973 35.4626 26.0183C35.3669 25.9917 35.2685 25.9624 35.17 25.9384V25.9357Z" fill="#E01D31"/>
<path id="Vector_27" d="M11.5711 33.3848C8.99005 32.6756 8.14519 29.2097 10.4638 26.1518C12.498 23.763 14.9479 22.4539 17.8024 22.214L13.4933 21.2835V21.2862C13.4468 21.2755 13.3976 21.2649 13.3511 21.2542C7.43703 19.9718 1.5749 23.611 0.262478 29.3804C-1.04994 35.1497 2.68225 40.8658 8.59906 42.1455C14.4284 43.4065 20.203 39.89 21.6275 34.2673H21.6303L22.0978 32.2171C22.1552 30.0762 22.9345 27.9327 23.3993 25.7225C21.4006 31.6172 15.4318 34.3499 11.5711 33.3848Z" fill="#762B83"/>
<path id="Vector_28" d="M11.5055 26.9459C10.8821 27.7777 10.431 28.7988 10.431 29.8439C10.431 30.5291 10.6388 31.2623 11.1747 31.7368C11.3879 31.9261 11.6395 32.0594 11.9156 32.1394C14.0565 32.6673 16.5829 31.7288 18.2973 30.5051C20.5284 28.9135 21.9502 26.6153 22.4997 24.0213C18.2754 22.8189 14.5159 23.4294 11.5055 26.9459Z" fill="#762B83"/>
<path id="Vector_29" d="M20.3643 22.2696C18.1934 21.8004 16.2794 21.2538 15.0545 19.3289C13.8569 17.4467 13.9854 15.1272 15.1912 13.4076C13.7339 12.2266 12.2437 11.7573 10.7782 12.2479C10.7372 12.4932 10.595 12.7198 10.3626 12.8584C9.93881 13.1143 9.3783 12.989 9.11582 12.5731C8.85333 12.1599 8.98184 11.6134 9.40838 11.3574C9.72554 11.1655 10.1193 11.1868 10.4064 11.3841C12.2055 10.7522 13.9991 11.1921 15.7873 12.6984C16.099 12.3865 16.4517 12.1039 16.8481 11.864C17.2446 11.624 17.6602 11.4401 18.084 11.3068C17.4907 9.07526 17.8844 7.313 19.2624 6.01996C19.2105 5.68137 19.3636 5.32945 19.6808 5.13749C20.1046 4.88155 20.6651 5.00686 20.9276 5.42276C21.1901 5.836 21.0616 6.38254 20.635 6.63848C20.4026 6.77979 20.1292 6.80378 19.8886 6.7318C18.7894 7.79556 18.557 9.30455 18.9972 11.1041C21.1108 10.8135 23.3009 11.7307 24.4984 13.6129C25.0781 14.522 25.2996 15.4472 25.3187 16.3909L26.1991 12.7144H26.2019C26.2292 12.6131 26.2593 12.5118 26.2893 12.4105C27.219 6.83577 23.5196 1.46366 17.7942 0.24527C11.8719 -1.01045 6.02343 2.65006 4.73289 8.42475C3.46148 14.1141 7.08704 19.7315 12.8589 21.0992V21.1019L18.0074 22.195C18.7648 22.147 19.5495 22.1683 20.3643 22.2696Z" fill="#EE9C19"/>
<path id="Vector_30" d="M23.9489 16.0816C23.8914 15.4365 23.7001 14.8579 23.3473 14.3061C22.1224 12.3838 19.5304 11.792 17.559 12.9864C15.5877 14.1807 14.9807 16.7082 16.2056 18.6304C16.5693 19.2009 17.0231 19.6355 17.6137 19.9794C18.4805 20.4807 19.555 20.7393 20.5284 20.9525C21.3486 21.1312 22.1634 21.2938 22.9728 21.4911C23.1477 20.7046 23.361 19.9261 23.5579 19.137C23.7958 18.1665 24.0364 17.0868 23.9489 16.0816Z" fill="#EE9C19"/>
<path id="Vector_31" d="M26.1964 12.7146L25.316 16.3911C25.3187 16.551 25.3187 16.7083 25.3105 16.8683L26.1472 13.1198H26.1444C26.1554 13.0745 26.1663 13.0265 26.1772 12.9812C26.221 12.7919 26.2565 12.6026 26.2866 12.4106C26.2565 12.512 26.2237 12.6106 26.1991 12.7146H26.1964Z" fill="#EE9C19"/>
<path id="Vector_32" d="M23.8422 23.4348V23.4375L18.0074 22.1978C17.9391 22.2031 17.8707 22.2084 17.8024 22.2137L24.0664 23.5681L22.0978 32.2168C22.0978 32.2488 22.0978 32.2808 22.0978 32.3128L24.2059 23.5148L23.8422 23.4348Z" fill="white"/>
<path id="Vector_33" d="M24.2059 23.5176L24.2223 23.443L33.2014 25.4878C31.364 24.6667 29.256 24.3708 27.1971 23.8802C33.2096 24.4028 38.0519 20.5423 38.8503 16.8711C39.3424 14.3011 36.5317 12.0242 32.6929 12.6934C28.9388 13.5626 26.3686 15.6607 24.9797 18.98C25.1465 18.2628 25.275 17.559 25.3078 16.8658L23.8422 23.435L24.2059 23.5176ZM32.9635 13.9571C34.0053 13.7812 35.1454 13.8398 36.1051 14.3037C36.7367 14.6076 37.3164 15.1142 37.516 15.794C37.5953 16.066 37.6062 16.3433 37.557 16.6205C37.0922 18.724 35.1099 20.5156 33.2233 21.4728C30.7707 22.7178 28.0256 22.9391 25.4007 22.2672C26.1663 18.0415 28.3974 15.0289 32.9635 13.9571Z" fill="white"/>
<path id="Vector_34" d="M23.279 36.5677C25.2777 39.7056 29.2177 40.956 32.6436 39.759L33.9697 40.3802L35.4353 41.0653L35.4544 39.4817L35.4708 38.0474C38.0929 35.5839 38.6917 31.5875 36.693 28.4469C35.8345 27.1005 34.7462 26.2394 33.5268 25.6395L24.2032 23.5146L22.0951 32.3127C22.0732 33.7257 22.3685 35.1387 23.279 36.5677ZM35.9958 29.9798C37.2617 32.8325 36.2282 36.2371 33.4393 37.9274C30.6723 39.6017 27.126 39.0205 25.0562 36.6983C29.7481 36.7863 33.5705 34.7041 35.9958 29.9798ZM35.2193 28.6788C32.7831 33.4617 28.9197 35.5546 24.1758 35.4426C23.8122 34.7628 23.6044 34.0856 23.5114 33.3977C27.774 33.3178 31.2765 31.3769 33.6088 27.2098C34.2103 27.5937 34.7517 28.0683 35.2193 28.6788ZM24.9687 24.6264C27.5334 25.4849 30.2348 25.6662 32.4304 26.5966C30.2485 30.0918 27.1616 31.8434 23.454 32.11C23.5524 29.8039 24.5859 27.3831 24.9687 24.6264Z" fill="white"/>
<path id="Vector_35" d="M24.2059 23.5175L33.5295 25.6424C33.4229 25.5891 33.3135 25.5384 33.2041 25.4904L24.225 23.4429L24.2059 23.5175Z" fill="white"/>
<path id="Vector_36" d="M17.8024 22.2139C14.9451 22.4538 12.498 23.7628 10.4638 26.1516C8.14516 29.2096 8.99003 32.6755 11.5711 33.3847C15.4291 34.3498 21.4006 31.6171 23.402 25.7224C22.9345 27.9326 22.158 30.0761 22.1005 32.2169L24.0692 23.5682L17.8024 22.2139ZM18.2973 30.5053C16.5829 31.729 14.0538 32.6648 11.9156 32.1396C11.6367 32.0623 11.3879 31.929 11.1747 31.737C10.6415 31.2625 10.431 30.5293 10.431 29.8441C10.431 28.799 10.8821 27.7779 11.5055 26.9461C14.5159 23.4296 18.2754 22.8191 22.4997 24.0215C21.9529 26.6155 20.5311 28.9137 18.2973 30.5053Z" fill="white"/>
<path id="Vector_37" d="M23.8422 23.4349L23.6399 23.3896L25.316 16.3912C25.2968 15.4474 25.0754 14.5223 24.4957 13.6132C23.2981 11.7309 21.108 10.8138 18.9945 11.1044C18.5543 9.30746 18.784 7.79847 19.8859 6.73205C20.1292 6.8067 20.3999 6.78003 20.6323 6.63873C21.0561 6.38279 21.1873 5.83625 20.9249 5.42301C20.6596 5.00977 20.1019 4.8818 19.6781 5.13774C19.3609 5.3297 19.2078 5.68162 19.2597 6.02021C17.8817 7.31325 17.488 9.07551 18.0813 11.307C17.6575 11.4403 17.2419 11.6243 16.8454 11.8642C16.449 12.1042 16.0935 12.3841 15.7846 12.6987C13.9964 11.1924 12.2027 10.7525 10.4036 11.3843C10.1165 11.187 9.72282 11.1657 9.40566 11.3577C8.98185 11.6136 8.85061 12.1601 9.1131 12.5734C9.37831 12.9866 9.93609 13.1146 10.3599 12.8587C10.5923 12.7174 10.7372 12.4907 10.7755 12.2481C12.241 11.7576 13.7312 12.2268 15.1885 13.4079C13.9827 15.1275 13.8542 17.4469 15.0518 19.3292C16.2767 21.2514 18.1906 21.8006 20.3616 22.2699C19.5468 22.1712 18.7621 22.1499 18.0047 22.1979L23.8395 23.4376L23.8422 23.4349ZM22.97 21.4914C22.1607 21.2941 21.3459 21.1314 20.5257 20.9528C19.5523 20.7395 18.475 20.4809 17.611 19.9797C17.0204 19.6385 16.5665 19.2012 16.2029 18.6307C14.978 16.7084 15.585 14.181 17.5563 12.9866C19.5277 11.7922 22.1197 12.3841 23.3446 14.3063C23.6946 14.8582 23.8887 15.4341 23.9461 16.0819C24.0364 17.0844 23.7958 18.1668 23.5524 19.1372C23.3583 19.9264 23.145 20.7049 22.97 21.4914Z" fill="white"/>
<path id="Vector_38" d="M25.316 16.3911L23.6399 23.3895L23.8422 23.4348L25.3105 16.8683C25.3187 16.7084 25.3187 16.5484 25.316 16.3911Z" fill="white"/>
</g>
<g id="Group_4">
<path id="Vector_39" d="M53.2951 34.8615L50.8316 34.6695L51.7803 25.1117L54.2739 25.0264C54.2575 25.133 54.2466 25.2183 54.2384 25.2823C54.2302 25.3463 54.2165 25.4316 54.1946 25.5383C54.356 25.4209 54.5474 25.309 54.7743 25.2023C54.9985 25.0957 55.2665 25.0424 55.5782 25.0424C55.9363 25.0424 56.2398 25.1037 56.4941 25.229C56.7484 25.3543 56.9562 25.5303 57.1202 25.7569C57.2843 25.9835 57.4046 26.2554 57.4812 26.57C57.5577 26.8873 57.5987 27.2365 57.5987 27.6178C57.5987 27.8231 57.5933 28.0657 57.5796 28.3483C57.5659 28.6309 57.5304 28.9241 57.4702 29.2227C57.4101 29.524 57.3226 29.8199 57.205 30.1132C57.0874 30.4065 56.9261 30.6704 56.7156 30.905C56.505 31.1396 56.2426 31.3289 55.9281 31.4702C55.611 31.6142 55.2254 31.6835 54.7716 31.6835C54.4407 31.6835 54.1892 31.6489 54.0169 31.5795C53.8447 31.5102 53.7162 31.4222 53.6287 31.3156L53.2951 34.8615ZM54.1017 29.9799C54.2739 29.9799 54.4161 29.9266 54.5337 29.8199C54.6513 29.7133 54.747 29.58 54.8208 29.4174C54.8946 29.2574 54.9547 29.0814 54.9985 28.8948C55.0422 28.7055 55.0723 28.5296 55.0915 28.3669C55.1106 28.2043 55.1215 28.0683 55.127 27.959C55.1325 27.8497 55.1352 27.7911 55.1352 27.7857C55.1352 27.4098 55.086 27.1432 54.9848 26.9859C54.8837 26.8313 54.7634 26.754 54.6239 26.754C54.5364 26.754 54.4462 26.7806 54.3532 26.834C54.2603 26.8873 54.1755 26.9646 54.0962 27.0659C54.0333 27.5298 53.9786 27.991 53.9294 28.4469C53.8802 28.9028 53.8283 29.364 53.7708 29.8279C53.7954 29.8679 53.8365 29.9053 53.8911 29.9346C53.9431 29.9666 54.0142 29.9799 54.1017 29.9799Z" fill="#008745"/>
<path id="Vector_40" d="M61.2188 25.0581C61.6289 25.0581 62.0063 25.0794 62.3562 25.1221C62.7062 25.1647 63.0125 25.2581 63.2777 25.3967C63.5429 25.538 63.7562 25.7433 63.9229 26.0152C64.0897 26.2872 64.1909 26.6524 64.2346 27.1136C64.3631 27.1243 64.5163 27.1216 64.6885 27.1056C64.8608 27.0896 65.0385 27.0683 65.2217 27.0417C65.4021 27.015 65.5744 26.983 65.7385 26.9457C65.9025 26.911 66.0337 26.8737 66.1376 26.839L65.9052 28.268C65.6154 28.38 65.3256 28.4627 65.0358 28.5133C64.7459 28.564 64.4698 28.596 64.2046 28.604C64.1772 28.8332 64.1362 29.0705 64.0761 29.3185C64.0159 29.5664 63.9311 29.8064 63.819 30.0383C63.7069 30.2703 63.5648 30.4915 63.3925 30.6995C63.2175 30.9074 63.0043 31.0914 62.7527 31.2487C62.4984 31.406 62.1977 31.5313 61.8477 31.6246C61.4977 31.7153 61.0958 31.7633 60.6392 31.7633C60.1771 31.7633 59.7752 31.7313 59.4279 31.6673C59.0807 31.6033 58.7908 31.4833 58.5584 31.3047C58.326 31.1261 58.1483 30.8755 58.0307 30.5529C57.9104 30.2303 57.853 29.8064 57.853 29.2865C57.853 28.9452 57.8749 28.604 57.9159 28.2627C57.9569 27.9215 58.028 27.5935 58.1264 27.2789C58.2249 26.9643 58.3588 26.6737 58.5256 26.4045C58.6951 26.1352 58.9029 25.9006 59.1518 25.7006C59.4006 25.5007 59.6959 25.346 60.0376 25.2314C60.3712 25.1141 60.7677 25.0581 61.2188 25.0581ZM61.9489 28.0014C61.711 27.8548 61.495 27.6922 61.3008 27.5189C61.1067 27.3456 60.9399 27.167 60.8005 26.983C60.6802 27.1056 60.579 27.2549 60.497 27.4309C60.415 27.6069 60.3466 27.7908 60.2919 27.9801C60.2372 28.1721 60.1962 28.3587 60.1716 28.5373C60.147 28.7186 60.1333 28.8732 60.1333 29.0012C60.1333 29.0572 60.1333 29.1398 60.1361 29.2492C60.1388 29.3585 60.1579 29.4704 60.1935 29.5851C60.229 29.6997 60.2892 29.7984 60.3712 29.8837C60.4532 29.969 60.5735 30.009 60.7294 30.009C60.9618 30.009 61.1559 29.9397 61.3118 29.7984C61.4676 29.6571 61.5907 29.4864 61.6809 29.2811C61.7711 29.0785 61.8367 28.8572 61.875 28.6226C61.9133 28.3933 61.9379 28.1827 61.9489 28.0014Z" fill="#008745"/>
<path id="Vector_41" d="M69.3859 29.9506C69.2984 30.2012 69.1617 30.4331 68.9785 30.6464C68.7953 30.8597 68.5848 31.049 68.3496 31.2089C68.1145 31.3689 67.8629 31.4969 67.595 31.5875C67.327 31.6782 67.0673 31.7262 66.813 31.7262C66.4876 31.7262 66.2087 31.6755 65.9818 31.5769C65.7549 31.4782 65.5662 31.3396 65.4185 31.1609C65.2709 30.9823 65.1643 30.7664 65.0959 30.5104C65.0276 30.2545 64.9948 29.9745 64.9948 29.6706C64.9948 29.5373 65.003 29.4067 65.0194 29.2734L65.6264 23.2747L65.7193 22.0963L68.6285 21.6484C68.2129 22.043 68.0871 22.8215 67.9805 23.8719C67.9203 24.4665 67.8575 25.0637 67.7946 25.6689C67.7317 26.2741 67.6715 26.8713 67.6086 27.4658C67.5458 28.0603 67.4856 28.6175 67.4227 29.1374C67.4063 29.2147 67.3981 29.2787 67.3981 29.3294C67.3981 29.4067 67.4036 29.4813 67.4173 29.556C67.4309 29.6306 67.4528 29.6946 67.4883 29.7479C67.5212 29.8013 67.5676 29.8439 67.6278 29.8786C67.6879 29.9106 67.7618 29.9292 67.8493 29.9292C67.9532 29.9292 68.0543 29.9079 68.1555 29.8679C68.2567 29.8279 68.3496 29.7746 68.4344 29.7079C68.5191 29.6413 68.593 29.5693 68.6531 29.4893C68.7133 29.4093 68.7543 29.332 68.7816 29.2574L69.3859 29.9506Z" fill="#008745"/>
<path id="Vector_42" d="M72.5466 29.2464C72.645 29.3637 72.7435 29.481 72.8446 29.5983C72.9458 29.7156 73.0442 29.8329 73.1427 29.9502C73.0661 30.1688 72.9403 30.3848 72.7708 30.5927C72.5986 30.8007 72.399 30.99 72.1638 31.1553C71.9314 31.3206 71.6744 31.4539 71.3955 31.5525C71.1166 31.6512 70.8295 31.7018 70.5397 31.7018C70.2171 31.7018 69.9464 31.6538 69.7195 31.5605C69.4952 31.4672 69.3066 31.3312 69.1589 31.1553C69.0113 30.9793 68.9047 30.7714 68.8363 30.5288C68.7679 30.2861 68.7351 30.0142 68.7351 29.7156C68.7351 29.5716 68.7406 29.4383 68.7543 29.313C68.768 29.1877 68.7734 29.0544 68.7734 28.9105L69.1781 25.1246L71.6252 25.026L71.1576 29.345C71.1576 29.4223 71.1631 29.4943 71.1768 29.5636C71.1905 29.633 71.2123 29.6943 71.2479 29.7476C71.2807 29.8009 71.3272 29.8436 71.3873 29.8729C71.4475 29.9022 71.5213 29.9182 71.6088 29.9182C71.7127 29.9182 71.8138 29.8969 71.915 29.8569C72.0162 29.8169 72.1091 29.7636 72.1939 29.6969C72.2787 29.6303 72.3525 29.5583 72.4126 29.4783C72.4783 29.401 72.522 29.3237 72.5466 29.2464ZM71.8959 23.2984C71.8959 23.6183 71.7783 23.8769 71.5459 24.0716C71.3135 24.2662 70.9909 24.3622 70.5835 24.3622C70.1788 24.3622 69.8616 24.2662 69.6265 24.0716C69.3941 23.8769 69.2765 23.621 69.2765 23.2984C69.2765 22.9811 69.3941 22.7252 69.6265 22.5306C69.8589 22.3333 70.1788 22.2373 70.5835 22.2373C70.9936 22.2373 71.3135 22.3359 71.5459 22.5306C71.7783 22.7252 71.8959 22.9811 71.8959 23.2984Z" fill="#008745"/>
<path id="Vector_43" d="M76.0737 27.7564C76.0737 27.6444 76.0683 27.5351 76.0546 27.4312C76.0409 27.3272 76.0191 27.2312 75.989 27.1486C75.9589 27.0659 75.9152 26.9966 75.8605 26.9459C75.8058 26.8953 75.7374 26.8686 75.6554 26.8686C75.5269 26.8686 75.4093 26.9246 75.3109 27.0366C75.2097 27.1486 75.1277 27.2872 75.0648 27.4498L74.6465 31.6089H72.2213L72.8747 25.125L75.3082 25.0264L75.2371 25.6689C75.4585 25.4663 75.6964 25.3196 75.948 25.2343C76.1995 25.149 76.4483 25.1037 76.6971 25.1037C77.3123 25.1037 77.7607 25.2716 78.0424 25.6076C78.3213 25.9435 78.4607 26.4047 78.4607 26.9913C78.4607 27.1992 78.447 27.4152 78.4169 27.6364C78.3896 27.8577 78.3568 28.0737 78.324 28.287C78.2912 28.4976 78.2584 28.6975 78.231 28.8842C78.2037 29.0708 78.1873 29.2307 78.1873 29.3694C78.1873 29.5027 78.2174 29.62 78.2802 29.724C78.3431 29.8279 78.4552 29.8813 78.622 29.8813C78.7369 29.8813 78.8353 29.8679 78.9173 29.8386C78.9993 29.8119 79.0704 29.7693 79.1278 29.716C79.1853 29.6626 79.2345 29.596 79.2782 29.516C79.322 29.436 79.3685 29.3454 79.4149 29.2441C79.5134 29.3614 79.6118 29.4787 79.713 29.596C79.8141 29.7133 79.9126 29.8306 80.011 29.9479C79.9235 30.1985 79.8005 30.4305 79.6419 30.6464C79.4833 30.8624 79.3001 31.0517 79.0896 31.209C78.879 31.3663 78.6521 31.4916 78.4087 31.5849C78.1654 31.6755 77.9193 31.7235 77.6732 31.7235C77.3014 31.7235 76.9979 31.6729 76.76 31.5715C76.5221 31.4702 76.3335 31.3369 76.194 31.1743C76.0546 31.0117 75.9589 30.825 75.907 30.6171C75.855 30.4091 75.8304 30.1959 75.8304 29.9826C75.8304 29.7933 75.8441 29.5987 75.8687 29.3934C75.8933 29.1908 75.9206 28.9908 75.9507 28.7962C75.9808 28.6016 76.0081 28.4176 76.0327 28.239C76.0601 28.0603 76.0737 27.8977 76.0737 27.7564Z" fill="#008745"/>
<path id="Vector_44" d="M83.1772 29.2464C83.2756 29.3637 83.3741 29.481 83.4752 29.5983C83.5764 29.7156 83.6748 29.8329 83.7733 29.9502C83.6967 30.1688 83.5709 30.3848 83.4014 30.5927C83.2292 30.8007 83.0296 30.99 82.7944 31.1553C82.562 31.3206 82.305 31.4539 82.0261 31.5525C81.7472 31.6512 81.4601 31.7018 81.1703 31.7018C80.8477 31.7018 80.577 31.6538 80.35 31.5605C80.1258 31.4672 79.9372 31.3312 79.7895 31.1553C79.6419 30.9793 79.5353 30.7714 79.4669 30.5288C79.3985 30.2861 79.3657 30.0142 79.3657 29.7156C79.3657 29.5716 79.3712 29.4383 79.3849 29.313C79.3985 29.1877 79.404 29.0544 79.404 28.9105L79.8087 25.1246L82.2558 25.026L81.7882 29.345C81.7882 29.4223 81.7937 29.4943 81.8074 29.5636C81.821 29.633 81.8429 29.6943 81.8785 29.7476C81.9113 29.8009 81.9578 29.8436 82.0179 29.8729C82.0781 29.9022 82.1519 29.9182 82.2394 29.9182C82.3433 29.9182 82.4444 29.8969 82.5456 29.8569C82.6468 29.8169 82.7397 29.7636 82.8245 29.6969C82.9093 29.6303 82.9831 29.5583 83.0432 29.4783C83.1061 29.401 83.1499 29.3237 83.1772 29.2464ZM82.5237 23.2984C82.5237 23.6183 82.4062 23.8769 82.1738 24.0716C81.9413 24.2662 81.6187 24.3622 81.2113 24.3622C80.8066 24.3622 80.4895 24.2662 80.2543 24.0716C80.0219 23.8769 79.9044 23.621 79.9044 23.2984C79.9044 22.9811 80.0219 22.7252 80.2543 22.5306C80.4867 22.3333 80.8066 22.2373 81.2113 22.2373C81.6214 22.2373 81.9413 22.3359 82.1738 22.5306C82.4062 22.7252 82.5237 22.9811 82.5237 23.2984Z" fill="#008745"/>
<path id="Vector_45" d="M89.1979 30.654C88.9764 30.854 88.7331 31.0299 88.4761 31.1819C88.2546 31.3152 87.9976 31.4352 87.7105 31.5418C87.4234 31.6485 87.1199 31.7018 86.8055 31.7018C86.3024 31.7018 85.8075 31.6858 85.3181 31.6511C84.8287 31.6191 84.3884 31.5818 84.0002 31.5392C83.5436 31.4885 83.1116 31.4325 82.7014 31.3712L82.9202 29.4063C83.0596 29.321 83.2538 29.169 83.5026 28.9557C83.7213 28.7718 84.0057 28.5078 84.3584 28.1639C84.7111 27.82 85.1595 27.3614 85.7036 26.7909H83.303L83.5135 25.0713H88.3558L88.1316 27.1428C87.8472 27.4121 87.5875 27.6707 87.3496 27.9186C87.1145 28.1666 86.8793 28.4012 86.6414 28.6251C86.4063 28.8491 86.1547 29.0624 85.8923 29.2623C85.627 29.465 85.3263 29.6569 84.9818 29.8409C85.422 29.8915 85.8403 29.9289 86.2395 29.9555C86.6387 29.9822 86.9996 29.9848 87.3195 29.9635C87.6394 29.9422 87.9156 29.8969 88.1425 29.8222C88.3694 29.7476 88.5362 29.6383 88.6401 29.489L89.1979 30.654Z" fill="#008745"/>
<path id="Vector_46" d="M95.8557 29.2463C95.9541 29.3636 96.0526 29.4809 96.1537 29.5983C96.2549 29.7156 96.3533 29.8329 96.4518 29.9502C96.3752 30.1741 96.2494 30.3901 96.0744 30.6007C95.8994 30.8086 95.6971 30.9979 95.4647 31.1632C95.2323 31.3285 94.978 31.4618 94.7073 31.5605C94.4366 31.6591 94.1632 31.7098 93.8953 31.7098C93.0313 31.7098 92.5008 31.3738 92.3094 30.6993C92.2684 30.7713 92.2274 30.838 92.1864 30.8993C92.1454 30.9606 92.0962 31.0193 92.0387 31.0752C91.9977 31.1152 91.9348 31.1739 91.8528 31.2485C91.7708 31.3232 91.6669 31.3952 91.5411 31.4672C91.4181 31.5391 91.2704 31.6005 91.1009 31.6511C90.9314 31.7018 90.7373 31.7284 90.5131 31.7284C90.1603 31.7284 89.8568 31.6671 89.6026 31.5445C89.3483 31.4218 89.1405 31.2565 88.9764 31.0433C88.8124 30.8326 88.6921 30.582 88.6155 30.2968C88.539 30.0115 88.498 29.7022 88.498 29.3716C88.498 29.289 88.5007 29.1663 88.5062 29.0011C88.5116 28.8358 88.528 28.6465 88.5526 28.4305C88.5772 28.2172 88.6155 27.9879 88.662 27.7427C88.7085 27.4974 88.7741 27.2521 88.8561 27.0095C88.9382 26.7642 89.0421 26.5296 89.1678 26.3057C89.2909 26.0817 89.4413 25.8818 89.6135 25.7085C89.7858 25.5352 89.9908 25.3965 90.2232 25.2952C90.4556 25.1939 90.7236 25.1433 91.0244 25.1433C91.1802 25.1433 91.3279 25.1593 91.4673 25.1939C91.6067 25.2259 91.7353 25.2686 91.8556 25.3166C91.9759 25.3645 92.0825 25.4179 92.1809 25.4739C92.2794 25.5298 92.3641 25.5832 92.4379 25.6338L92.509 25.0366L94.9097 25.1433L94.4968 29.1504C94.4859 29.2383 94.4831 29.329 94.4859 29.425C94.4886 29.5209 94.5023 29.6089 94.5296 29.6889C94.5542 29.7689 94.6007 29.8329 94.6608 29.8835C94.7237 29.9342 94.8085 29.9608 94.9179 29.9608C95.0218 29.9608 95.1229 29.9368 95.2241 29.8915C95.3253 29.8462 95.4182 29.7875 95.503 29.7182C95.5877 29.6489 95.6616 29.5743 95.7217 29.4889C95.7873 29.4036 95.8311 29.3236 95.8557 29.2463ZM92.2903 26.9375C92.2684 26.8975 92.2329 26.8469 92.1809 26.7856C92.129 26.7242 92.047 26.6949 91.9321 26.6949C91.7927 26.6949 91.6587 26.7509 91.5329 26.8629C91.4071 26.9748 91.295 27.1295 91.1993 27.3294C91.1036 27.5294 91.0271 27.7667 90.9697 28.0493C90.9123 28.3292 90.8849 28.6385 90.8849 28.9744C90.8849 29.193 90.9013 29.3663 90.9314 29.4916C90.9615 29.6169 91.0025 29.7102 91.049 29.7715C91.0954 29.8329 91.1447 29.8702 91.1966 29.8835C91.2486 29.8968 91.295 29.9022 91.3361 29.9022C91.4591 29.9022 91.5931 29.8649 91.7353 29.7875C91.8774 29.7102 91.9813 29.5823 92.0497 29.3983L92.2903 26.9375Z" fill="#008745"/>
<path id="Vector_47" d="M99.3828 27.7564C99.3828 27.6444 99.3774 27.5351 99.3637 27.4312C99.35 27.3272 99.3281 27.2312 99.2981 27.1486C99.268 27.0659 99.2242 26.9966 99.1696 26.9459C99.1149 26.8953 99.0465 26.8686 98.9645 26.8686C98.836 26.8686 98.7184 26.9246 98.62 27.0366C98.5188 27.1486 98.4368 27.2872 98.3739 27.4498L97.9556 31.6089H95.5303L96.1838 25.125L98.6172 25.0264L98.5462 25.6689C98.7676 25.4663 99.0055 25.3196 99.257 25.2343C99.5086 25.149 99.7574 25.1037 100.006 25.1037C100.621 25.1037 101.07 25.2716 101.351 25.6076C101.63 25.9435 101.77 26.4047 101.77 26.9913C101.77 27.1992 101.756 27.4152 101.726 27.6364C101.699 27.8577 101.666 28.0737 101.633 28.287C101.6 28.4976 101.567 28.6975 101.54 28.8842C101.513 29.0708 101.496 29.2307 101.496 29.3694C101.496 29.5027 101.526 29.62 101.589 29.724C101.652 29.8279 101.764 29.8813 101.931 29.8813C102.046 29.8813 102.144 29.8679 102.226 29.8386C102.308 29.8119 102.38 29.7693 102.437 29.716C102.494 29.6626 102.544 29.596 102.587 29.516C102.631 29.436 102.678 29.3454 102.724 29.2441C102.822 29.3614 102.921 29.4787 103.022 29.596C103.123 29.7133 103.222 29.8306 103.32 29.9479C103.233 30.1985 103.11 30.4305 102.951 30.6464C102.792 30.8624 102.609 31.0517 102.399 31.209C102.188 31.3663 101.961 31.4916 101.718 31.5849C101.474 31.6755 101.228 31.7235 100.982 31.7235C100.61 31.7235 100.307 31.6729 100.069 31.5715C99.8312 31.4702 99.6426 31.3369 99.5031 31.1743C99.3637 31.0117 99.268 30.825 99.216 30.6171C99.1641 30.4091 99.1395 30.1959 99.1395 29.9826C99.1395 29.7933 99.1532 29.5987 99.1778 29.3934C99.2024 29.1908 99.2297 28.9908 99.2598 28.7962C99.2899 28.6016 99.3172 28.4176 99.3418 28.239C99.3719 28.0603 99.3828 27.8977 99.3828 27.7564Z" fill="#008745"/>
<path id="Vector_48" d="M109.888 29.2466C109.986 29.3639 110.084 29.4812 110.186 29.5985C110.287 29.7158 110.385 29.8331 110.484 29.9504C110.396 30.201 110.262 30.4303 110.087 30.6436C109.912 30.8542 109.707 31.0382 109.477 31.1928C109.248 31.3474 109.002 31.4701 108.742 31.5554C108.482 31.6407 108.225 31.686 107.974 31.686C107.55 31.686 107.208 31.598 106.951 31.4221C106.694 31.2461 106.508 31.0062 106.396 30.6996C106.355 30.7662 106.314 30.8302 106.276 30.8942C106.237 30.9582 106.188 31.0168 106.131 31.0728C106.09 31.1181 106.027 31.1768 105.945 31.2488C105.863 31.3208 105.759 31.3928 105.633 31.4621C105.51 31.5341 105.363 31.5954 105.193 31.646C105.023 31.6967 104.829 31.7233 104.605 31.7233C104.258 31.7233 103.96 31.6647 103.708 31.5474C103.457 31.4301 103.249 31.2674 103.082 31.0622C102.915 30.8569 102.792 30.6089 102.713 30.3237C102.634 30.0384 102.593 29.7291 102.593 29.3985C102.593 29.3425 102.596 29.2386 102.601 29.0839C102.606 28.932 102.62 28.7454 102.645 28.5294C102.669 28.3135 102.702 28.0762 102.746 27.8229C102.79 27.567 102.853 27.311 102.932 27.0497C103.011 26.7885 103.112 26.5379 103.23 26.2979C103.35 26.0553 103.495 25.8393 103.67 25.6527C103.842 25.4634 104.045 25.3141 104.277 25.2022C104.507 25.0902 104.772 25.0342 105.073 25.0342C105.338 25.0342 105.554 25.0609 105.726 25.1115C105.898 25.1622 106.035 25.2208 106.142 25.2848C106.248 25.3488 106.33 25.4128 106.388 25.4768C106.445 25.5407 106.494 25.5861 106.535 25.6101L106.861 21.595L109.308 21.395C109.245 21.9202 109.185 23.3066 109.125 23.8958C109.065 24.4877 109.004 25.0848 108.942 25.69C108.879 26.2952 108.819 26.8898 108.756 27.479C108.693 28.0682 108.633 28.6254 108.578 29.1506C108.562 29.2226 108.553 29.2946 108.553 29.3719C108.553 29.4385 108.559 29.5052 108.572 29.5718C108.586 29.6385 108.611 29.6971 108.646 29.7478C108.682 29.7984 108.728 29.8411 108.786 29.8731C108.846 29.9078 108.925 29.9264 109.024 29.9238C109.119 29.9211 109.27 29.8811 109.357 29.8384C109.431 29.8011 109.499 29.7558 109.562 29.7025C109.639 29.6358 109.707 29.5638 109.759 29.4839C109.822 29.4012 109.863 29.3239 109.888 29.2466ZM106.391 26.9378C106.369 26.8978 106.333 26.8471 106.281 26.7858C106.229 26.7245 106.147 26.6951 106.032 26.6951C105.893 26.6951 105.759 26.7511 105.633 26.8631C105.507 26.9751 105.395 27.1297 105.3 27.3297C105.204 27.5296 105.127 27.7669 105.07 28.0495C105.013 28.3294 104.985 28.6387 104.985 28.9746C104.985 29.1933 105.002 29.3665 105.032 29.4918C105.062 29.6172 105.103 29.7105 105.149 29.7718C105.196 29.8331 105.245 29.8704 105.297 29.8838C105.349 29.8971 105.395 29.9024 105.436 29.9024C105.559 29.9024 105.693 29.8651 105.836 29.7878C105.978 29.7105 106.082 29.5825 106.15 29.3985L106.391 26.9378Z" fill="#008745"/>
<path id="Vector_49" d="M113.081 25.0581C113.491 25.0581 113.869 25.0794 114.219 25.1221C114.569 25.1647 114.875 25.2581 115.14 25.3967C115.405 25.538 115.619 25.7433 115.785 26.0152C115.952 26.2872 116.053 26.6524 116.097 27.1136C116.225 27.1243 116.379 27.1216 116.551 27.1056C116.723 27.0896 116.901 27.0683 117.084 27.0417C117.264 27.015 117.437 26.983 117.601 26.9457C117.765 26.911 117.896 26.8737 118 26.839L117.768 28.268C117.478 28.38 117.188 28.4627 116.898 28.5133C116.608 28.564 116.332 28.596 116.067 28.604C116.04 28.8332 115.999 29.0705 115.938 29.3185C115.878 29.5664 115.793 29.8064 115.681 30.0383C115.569 30.2703 115.427 30.4915 115.255 30.6995C115.08 30.9074 114.867 31.0914 114.615 31.2487C114.361 31.406 114.06 31.5313 113.71 31.6246C113.36 31.7153 112.958 31.7633 112.502 31.7633C112.039 31.7633 111.638 31.7313 111.29 31.6673C110.943 31.6033 110.653 31.4833 110.421 31.3047C110.188 31.1261 110.011 30.8755 109.893 30.5529C109.773 30.2303 109.715 29.8064 109.715 29.2865C109.715 28.9452 109.737 28.604 109.778 28.2627C109.819 27.9215 109.89 27.5935 109.989 27.2789C110.087 26.9643 110.221 26.6737 110.388 26.4045C110.558 26.1352 110.765 25.9006 111.014 25.7006C111.263 25.5007 111.558 25.346 111.9 25.2314C112.234 25.1141 112.63 25.0581 113.081 25.0581ZM113.811 28.0014C113.573 27.8548 113.357 27.6922 113.163 27.5189C112.969 27.3456 112.802 27.167 112.663 26.983C112.543 27.1056 112.441 27.2549 112.359 27.4309C112.277 27.6069 112.209 27.7908 112.154 27.9801C112.1 28.1721 112.059 28.3587 112.034 28.5373C112.009 28.7186 111.996 28.8732 111.996 29.0012C111.996 29.0572 111.996 29.1398 111.998 29.2492C112.001 29.3585 112.02 29.4704 112.056 29.5851C112.091 29.6997 112.152 29.7984 112.234 29.8837C112.316 29.969 112.436 30.009 112.592 30.009C112.824 30.009 113.018 29.9397 113.174 29.7984C113.33 29.6571 113.453 29.4864 113.543 29.2811C113.633 29.0785 113.699 28.8572 113.737 28.6226C113.776 28.3933 113.8 28.1827 113.811 28.0014Z" fill="#008745"/>
</g>
</g>
<defs>
<clipPath id="clip0_29_2364">
<rect width="118" height="47" fill="white"/>
</clipPath>
</defs>
</svg>
