<svg width="93" height="94" viewBox="0 0 93 94" fill="none" xmlns="http://www.w3.org/2000/svg">
<g id="Frame" clip-path="url(#clip0_1_884)">
<path id="Vector" d="M66.5075 51.4572C66.602 51.4771 66.6916 51.502 66.7862 51.5219C78.2681 54.2045 89.755 47.0725 92.4376 35.5906C95.1202 24.1087 87.9882 12.6218 76.5063 9.9392C65.1936 7.29642 53.8759 14.1796 50.9793 25.3679H50.9743L45.9973 46.6644L66.5075 51.4572Z" fill="#118546"/>
<path id="Vector_2" d="M42.3393 67.289C42.3194 67.3835 42.2945 67.4731 42.2746 67.5677C39.592 79.0496 46.724 90.5365 58.2059 93.2191C69.6878 95.9017 81.1747 88.7697 83.8573 77.2877C86.5001 65.975 79.6169 54.6574 68.4286 51.7608V51.7558L47.1321 46.7788L42.3393 67.289Z" fill="#E01D31"/>
<path id="Vector_3" d="M26.2585 42.4634C26.164 42.4435 26.0744 42.4236 25.9798 42.4037C14.4681 39.8505 3.06578 47.1119 0.512586 58.6237C-2.04061 70.1355 5.22082 81.5378 16.7326 84.091C28.0751 86.6043 39.3132 79.5918 42.0804 68.3736H42.0854L46.8185 47.0223L26.2585 42.4634Z" fill="#762B83"/>
<path id="Vector_4" d="M50.8747 26.1792C50.8947 26.0846 50.9146 25.995 50.9345 25.9005C53.4429 14.3787 46.1416 3.00135 34.6199 0.492945C23.0982 -2.01546 11.7208 5.28579 9.21238 16.8075C6.73882 28.16 13.7962 39.3682 25.0243 42.1006V42.1055L46.3905 46.764L50.8747 26.1792Z" fill="#EE9C19"/>
<path id="Vector_5" fill-rule="evenodd" clip-rule="evenodd" d="M32.7735 23.6756C32.002 24.1534 31.3102 24.7158 30.708 25.338C27.2291 22.3319 23.7402 21.4559 20.2364 22.7151C19.674 22.3219 18.9126 22.2771 18.2954 22.6603C17.4692 23.173 17.2154 24.2579 17.728 25.0891C18.2407 25.9153 19.3257 26.1691 20.1568 25.6565C20.6097 25.3778 20.8884 24.9249 20.9681 24.4371C23.8199 23.4616 26.7165 24.3973 29.5534 26.7514C27.2092 30.1806 26.9604 34.8092 29.2896 38.5618C31.6736 42.3991 35.3964 43.494 39.6218 44.4297C31.8776 43.4592 25.4573 46.0372 20.3609 52.1789C15.8517 58.2806 17.4941 65.1987 22.5159 66.6121C30.0262 68.5382 41.6375 63.0834 45.5295 51.3228C44.0115 58.7136 40.7914 65.7212 45.2906 72.9628C49.1776 79.2238 56.8422 81.7173 63.5114 79.3283L66.0894 80.5676L68.9413 81.9363L68.9811 78.7759L69.0159 75.9141C74.1173 70.9968 75.2819 63.0237 71.3949 56.7577C67.1097 49.8596 59.8732 49.3469 52.9203 47.6448C64.6212 48.69 74.0427 40.9856 75.5955 33.6595C76.556 28.5332 71.0863 23.9892 63.6159 25.328C56.3146 27.065 51.3128 31.2456 48.6103 37.875C49.4514 34.1472 49.7998 30.6036 47.6646 27.1595C45.3354 23.4019 41.0751 21.5754 36.9591 22.1577C36.1031 18.5693 36.551 15.5582 38.6911 13.433C39.1639 13.5773 39.6915 13.5276 40.1444 13.2489C40.9706 12.7362 41.2244 11.6512 40.7118 10.8201C40.1992 9.9939 39.1142 9.74007 38.283 10.2527C37.6659 10.6359 37.3672 11.3377 37.4718 12.0146C34.7892 14.5976 34.0277 18.1114 35.1774 22.5608C34.3512 22.8296 33.5449 23.1979 32.7735 23.6756ZM64.1385 27.8464C55.2545 29.9865 50.9146 35.9987 49.4215 44.4297C54.5329 45.7685 59.8682 45.3255 64.6411 42.842C68.3092 40.9358 72.1663 37.3574 73.0722 33.1618C73.1717 32.6093 73.1518 32.0519 72.9925 31.5144C72.6043 30.1607 71.4745 29.1503 70.2502 28.5431C68.3788 27.6124 66.1641 27.498 64.1385 27.8464ZM22.3865 53.7665C28.2444 46.7539 35.5556 45.5296 43.7776 47.9335C42.7125 53.1095 39.9453 57.6934 35.6004 60.8687C32.2609 63.3074 27.3486 65.1787 23.1828 64.1286C22.6453 63.9743 22.1576 63.7056 21.7395 63.3273C20.6993 62.3767 20.2962 60.9184 20.2962 59.5498C20.2912 57.4644 21.1721 55.4288 22.3865 53.7665ZM68.5232 57.2255C63.7851 66.7714 56.2698 70.9471 47.0375 70.7231C46.3308 69.3694 45.9277 68.0107 45.7435 66.642C54.0352 66.4827 60.8536 62.6106 65.3927 54.2941C66.5573 55.0555 67.6174 56.0062 68.5232 57.2255ZM48.7446 73.2265C57.8774 73.4007 65.318 69.2449 70.0312 59.8235C72.4948 65.5172 70.4841 72.3108 65.0542 75.6802C59.6741 79.0197 52.771 77.8601 48.7446 73.2265ZM63.0983 53.0697C58.8579 60.0425 52.8457 63.5363 45.634 64.0689C45.8231 59.4701 47.8338 54.6425 48.5754 49.1379C53.5673 50.85 58.823 51.2083 63.0983 53.0697ZM31.5243 37.1782C29.1403 33.341 30.3198 28.2993 34.1571 25.9153C37.9943 23.5313 43.036 24.7109 45.42 28.5481C46.1019 29.648 46.4801 30.8027 46.5896 32.0868C46.7638 34.0875 46.296 36.2475 45.8231 38.1836C45.4399 39.7563 45.0268 41.3091 44.6834 42.8769C43.1107 42.4837 41.528 42.1602 39.9304 41.8018C38.0342 41.3738 35.9438 40.8612 34.2616 39.8608C33.1169 39.1839 32.231 38.313 31.5243 37.1782Z" fill="white"/>
</g>
<defs>
<clipPath id="clip0_1_884">
<rect width="93" height="93.7814" fill="white"/>
</clipPath>
</defs>
</svg>
