<svg width="46" height="57" viewBox="0 0 46 57" fill="none" xmlns="http://www.w3.org/2000/svg">
<g id="Layer_1" clip-path="url(#clip0_29_2545)">
<path id="Vector" fill-rule="evenodd" clip-rule="evenodd" d="M12.0911 10.8446C11.4826 11.2235 10.9377 11.668 10.46 12.1617C7.71375 9.7789 4.95658 9.08482 2.19033 10.0831C1.74715 9.77343 1.14595 9.737 0.65736 10.0412C0.0034864 10.4475 -0.196308 11.3091 0.20873 11.9631C0.613768 12.619 1.47289 12.8194 2.12494 12.4131C2.48276 12.1909 2.70435 11.832 2.7661 11.4458C5.02015 10.6715 7.30871 11.413 9.54822 13.2803C7.69558 15.9965 7.4976 19.6636 9.33935 22.6385C11.221 25.6789 14.1635 26.5461 17.4982 27.2875C11.3827 26.5169 6.31155 28.5627 2.28478 33.4249C-1.27883 38.2598 0.0216497 43.7395 3.98667 44.8599C9.91694 46.3847 19.0893 42.0654 22.1662 32.7472C20.9656 38.6023 18.4246 44.1512 21.9773 49.8915C25.0487 54.8539 31.1024 56.8286 36.3698 54.934L38.4077 55.9159L40.6581 56.9999L40.6871 54.495L40.7144 52.2288C44.7448 48.3321 45.6657 42.0162 42.5943 37.0538C39.2105 31.5886 33.4945 31.1842 28.002 29.8343C37.2416 30.6613 44.6848 24.5567 45.9109 18.7527C46.6683 14.6921 42.3491 11.0924 36.4479 12.1508C30.6792 13.5262 26.7288 16.8399 24.5946 22.0901C25.2594 19.1353 25.5354 16.3298 23.8481 13.6027C22.0063 10.6278 18.6425 9.17955 15.3931 9.63863C14.7175 6.79673 15.0716 4.41027 16.7626 2.72882C17.135 2.84541 17.5527 2.80351 17.9105 2.58126C18.5626 2.17501 18.7642 1.31334 18.3592 0.659336C17.9541 0.00351427 17.095 -0.196876 16.443 0.209369C15.9544 0.513598 15.7201 1.07105 15.8 1.60663C13.6822 3.65061 13.0773 6.43603 13.9891 9.96289C13.3352 10.1724 12.6977 10.4657 12.0874 10.8446H12.0911ZM36.8638 14.1492C29.8455 15.8434 26.4182 20.6072 25.2394 27.2857C29.2752 28.3459 33.4909 27.9943 37.2616 26.0287C40.1586 24.5167 43.2064 21.6839 43.9202 18.3574C43.9983 17.9184 43.9819 17.4793 43.8584 17.0512C43.5515 15.9801 42.6597 15.1785 41.6897 14.6976C40.2149 13.9634 38.4658 13.8705 36.8638 14.1492ZM3.88858 34.6819C8.51656 29.1256 14.2924 28.1583 20.784 30.0602C19.9412 34.1591 17.7562 37.7916 14.3269 40.3092C11.6915 42.2439 7.80819 43.7249 4.51885 42.8924C4.09201 42.7685 3.70877 42.5572 3.38002 42.2566C2.55904 41.5043 2.23937 40.3475 2.23755 39.2635C2.23755 37.6112 2.92957 35.999 3.88858 34.6819ZM40.3311 37.42C36.5877 44.9801 30.652 48.2902 23.3595 48.1117C22.8001 47.0387 22.4822 45.9638 22.3369 44.8799C28.8865 44.7542 34.2719 41.6864 37.8555 35.0991C38.7782 35.7039 39.6137 36.4563 40.333 37.42H40.3311ZM24.7072 50.0992C31.9198 50.2376 37.7974 46.9458 41.5208 39.4803C43.4661 43.9909 41.8786 49.3723 37.5903 52.0411C33.3401 54.6881 27.8857 53.7681 24.7072 50.0992ZM36.0446 34.1299C32.6935 39.6534 27.9475 42.4224 22.2515 42.8432C22.4005 39.1998 23.9879 35.3742 24.5764 31.0129C28.516 32.3701 32.6681 32.6561 36.0446 34.1281V34.1299ZM11.1066 21.54C9.22492 18.4995 10.1567 14.5045 13.1881 12.6171C16.2195 10.7298 20.2027 11.6644 22.0844 14.7048C22.6239 15.5756 22.9199 16.4883 23.0089 17.5103C23.1452 19.097 22.7764 20.8058 22.4059 22.3415C22.1044 23.5876 21.7775 24.8172 21.5068 26.0615C20.2645 25.75 19.013 25.4931 17.7507 25.2089C16.2522 24.8719 14.6012 24.4638 13.2717 23.6714C12.3635 23.1303 11.666 22.4417 11.1084 21.5418L11.1066 21.54Z" fill="#E11E79"/>
</g>
<defs>
<clipPath id="clip0_29_2545">
<rect width="46" height="57" fill="white"/>
</clipPath>
</defs>
</svg>
