<svg width="36" height="43" viewBox="0 0 36 43" fill="none" xmlns="http://www.w3.org/2000/svg">
<path fillRule="evenodd" clipRule="evenodd" d="M26.5365 8.18128C27.0129 8.46712 27.4398 8.80239 27.8132 9.17492C29.9629 7.37749 32.12 6.85453 34.2852 7.60674C34.6312 7.37248 35.1033 7.34597 35.4849 7.5745C35.9962 7.88183 36.1533 8.5316 35.8361 9.02591C35.519 9.52022 34.8469 9.67209 34.3356 9.36548C34.0562 9.19784 33.8828 8.92776 33.8347 8.63619C32.0703 8.05233 30.28 8.61112 28.5268 10.0203C29.9762 12.0691 30.1311 14.8358 28.6898 17.0796C27.2167 19.3734 24.9137 20.0268 22.3046 20.5863C27.0907 20.0053 31.0596 21.5477 34.2104 25.2163C36.998 28.8628 35.9814 32.9963 32.878 33.841C28.2363 34.9908 21.0582 31.7326 18.6507 24.7041C19.5903 29.1199 21.5784 33.3072 18.7981 37.6371C16.395 41.3802 11.657 42.8696 7.53406 41.4411L5.93941 42.1819L4.17803 43L4.15506 41.1109L4.13432 39.4009C0.980583 36.4622 0.259583 31.6961 2.66341 27.9537C5.31104 23.8308 9.78524 23.5249 14.0831 22.5077C6.85159 23.1309 1.02727 18.5267 0.0676613 14.1488C-0.525887 11.0848 2.85534 8.37041 7.4733 9.16847C11.9883 10.2058 15.0797 12.7053 16.7492 16.6662C16.2283 14.4375 16.0127 12.3213 17.3339 10.2631C18.7752 8.01866 21.408 6.92545 23.9504 7.2729C24.4787 5.12874 24.2023 3.32917 22.8789 2.05973C22.5876 2.14713 22.2601 2.11704 21.98 1.94869C21.4687 1.64207 21.3116 0.992305 21.6288 0.497996C21.9459 0.00368639 22.618 -0.148188 23.1293 0.158427C23.5109 0.387672 23.6954 0.808193 23.6317 1.21224C25.2901 2.75463 25.7621 4.8558 25.0493 7.51576C25.5606 7.67408 26.06 7.89473 26.5372 8.18128H26.5365ZM7.14948 10.6736C12.6418 11.9516 15.3235 15.5451 16.2476 20.5834C13.0887 21.3836 9.78969 21.1186 6.83825 19.6342C4.57077 18.4937 2.18621 16.3567 1.62748 13.8479C1.56598 13.517 1.58006 13.186 1.67639 12.8622C1.91722 12.0534 2.61525 11.4502 3.3733 11.0862C4.52779 10.5325 5.89643 10.463 7.15022 10.6729L7.14948 10.6736ZM32.9573 26.1634C29.336 21.9711 24.8151 21.2418 19.7348 22.6767C20.3943 25.7694 22.1038 28.5096 24.7884 30.4087C26.8514 31.8673 29.8903 32.9856 32.4645 32.3566C32.798 32.2635 33.0996 32.1044 33.3567 31.8773C33.9992 31.3099 34.2496 30.4374 34.2504 29.6193C34.2519 28.3735 33.7087 27.1563 32.9581 26.1634H32.9573ZM4.43665 28.2287C7.36585 33.9319 12.012 36.4293 17.7192 36.2946C18.1572 35.4851 18.4061 34.6748 18.5195 33.8567C13.394 33.7614 9.17984 31.4482 6.37512 26.4786C5.65264 26.9349 4.99907 27.5023 4.43665 28.2295V28.2287ZM16.664 37.7926C11.019 37.8972 6.41958 35.4134 3.5052 29.7819C1.98243 33.1847 3.22584 37.2438 6.58112 39.2576C9.90751 41.2542 14.1757 40.56 16.664 37.7926ZM7.79193 25.7465C10.4144 29.9137 14.1298 32.002 18.5862 32.3201C18.4699 29.572 17.2264 26.6856 16.767 23.396C13.6844 24.419 10.4336 24.6346 7.79193 25.7465ZM27.3071 16.2493C28.7795 13.9554 28.0504 10.9423 25.6784 9.51807C23.3064 8.0946 20.189 8.79953 18.7159 11.0927C18.2935 11.7503 18.0623 12.4388 17.9927 13.2089C17.8852 14.4053 18.1749 15.6948 18.4654 16.8532C18.7011 17.7938 18.9574 18.7201 19.1686 19.6586C20.1408 19.4229 21.1204 19.2302 22.1082 19.016C23.2805 18.7616 24.5728 18.4543 25.6139 17.8568C26.3238 17.4485 26.8714 16.9284 27.3071 16.25V16.2493Z" fill="white"/>
</svg>
