<svg width="41" height="42" viewBox="0 0 41 42" fill="none" xmlns="http://www.w3.org/2000/svg">
<path d="M29.396 22.6688C29.436 22.6788 29.4759 22.6888 29.5159 22.6955C34.5379 23.872 39.5599 20.7436 40.7322 15.7034C41.9044 10.6632 38.7873 5.62299 33.7653 4.4465C28.8165 3.28672 23.8711 6.30817 22.6023 11.218L20.4276 20.5631L29.3993 22.6654L29.396 22.6688Z" fill="#118746"/>
<path d="M18.8258 29.6175C18.8158 29.6576 18.8058 29.6977 18.7958 29.7378C17.6235 34.778 20.7407 39.8182 25.7627 40.9947C30.7847 42.1712 35.8067 39.0428 36.979 34.0026C38.1346 29.0359 35.124 24.0726 30.2319 22.7992L20.9205 20.6133L18.8258 29.6175Z" fill="#E21D31"/>
<path d="M11.7923 18.7215C11.7523 18.7149 11.7123 18.7048 11.6724 18.6948C6.63703 17.5751 1.65163 20.7603 0.535999 25.8139C-0.579637 30.8675 2.5941 35.8709 7.62944 36.9906C12.5882 38.0936 17.5037 35.0153 18.7159 30.0921L20.7873 20.7236L11.7923 18.7215Z" fill="#762B85"/>
<path d="M22.559 11.5759C22.569 11.5358 22.579 11.4957 22.5856 11.4556C23.6846 6.39865 20.4909 1.40524 15.4522 0.305615C10.4135 -0.797348 5.43814 2.40793 4.34248 7.46485C3.26015 12.4482 6.3473 17.3681 11.2561 18.5647L20.6008 20.6102L22.5623 11.5759H22.559Z" fill="#F09E19"/>
<path fillRule="evenodd" clipRule="evenodd" d="M14.643 10.4765C14.3066 10.6871 14.0036 10.9311 13.7405 11.2051C12.2185 9.88491 10.6933 9.50055 9.16136 10.052C8.91492 9.88157 8.5819 9.86151 8.31214 10.0286C7.94915 10.2526 7.83925 10.7305 8.06238 11.0948C8.2855 11.4591 8.76173 11.5694 9.12473 11.3455C9.32121 11.2218 9.44443 11.0246 9.47773 10.8107C10.7266 10.3829 11.9921 10.794 13.2309 11.8268C12.2052 13.3308 12.0953 15.363 13.1144 17.0107C14.1567 18.6952 15.7852 19.1765 17.6302 19.5843C14.2433 19.1565 11.4359 20.2895 9.20798 22.9834C7.23647 25.6606 7.95581 28.6954 10.1504 29.3171C13.4341 30.1627 18.5127 27.7696 20.2145 22.6091C19.5484 25.8511 18.1431 28.9261 20.1112 32.1079C21.813 34.8553 25.1632 35.9516 28.0805 34.9021L29.2095 35.4469L30.455 36.0485L30.4717 34.6615L30.485 33.4048C32.7163 31.2456 33.2258 27.7462 31.524 24.9988C29.6524 21.9707 26.4853 21.7468 23.4448 20.9981C28.5601 21.456 32.6796 18.0736 33.359 14.8583C33.7786 12.6089 31.3875 10.6135 28.1205 11.2018C24.9268 11.9638 22.7388 13.7988 21.5599 16.7066C21.9296 15.0688 22.0794 13.5147 21.1469 12.0039C20.1279 10.3562 18.2663 9.55402 16.4679 9.80804C16.095 8.23381 16.2881 6.91359 17.2272 5.98109C17.4337 6.04459 17.6635 6.02454 17.8633 5.90087C18.2263 5.67694 18.3362 5.19899 18.1131 4.83468C17.89 4.47036 17.4137 4.36007 17.0507 4.584C16.781 4.75112 16.6511 5.06195 16.6944 5.35608C15.5221 6.48912 15.1858 8.03327 15.692 9.98518C15.329 10.1022 14.976 10.2626 14.6396 10.4732L14.643 10.4765ZM28.357 12.3081C24.4705 13.2473 22.5756 15.8844 21.9196 19.5843C24.1542 20.1725 26.4887 19.9787 28.5767 18.8891C30.1819 18.0502 31.867 16.4826 32.2633 14.641C32.3066 14.397 32.2966 14.1564 32.23 13.9157C32.0602 13.3208 31.5673 12.8796 31.0311 12.6122C30.2152 12.2045 29.2461 12.1543 28.3603 12.3081H28.357ZM10.1005 23.682C12.6615 20.6037 15.8585 20.0689 19.4552 21.1218C18.9889 23.3912 17.7801 25.4066 15.8785 26.8004C14.4198 27.8732 12.2685 28.6921 10.4502 28.2309C10.2137 28.1607 10.0006 28.047 9.82075 27.8799C9.3645 27.4621 9.188 26.8237 9.188 26.2221C9.188 25.3063 9.57098 24.4139 10.1038 23.6853L10.1005 23.682ZM30.2752 25.1994C28.2038 29.3873 24.9168 31.2222 20.8805 31.122C20.5708 30.527 20.3943 29.9321 20.3144 29.3305C23.941 29.2603 26.9216 27.5624 28.9064 23.9126C29.416 24.2468 29.8789 24.6646 30.2785 25.1994H30.2752ZM21.6265 32.2216C25.6195 32.2985 28.8731 30.4736 30.9346 26.3391C32.0102 28.8392 31.1311 31.8172 28.7599 33.2978C26.4054 34.7651 23.3882 34.2537 21.6265 32.2216ZM27.904 23.3745C26.0491 26.436 23.4215 27.9668 20.2678 28.2008C20.351 26.182 21.2302 24.063 21.5532 21.6465C23.7346 22.3985 26.0324 22.5556 27.9007 23.3711L27.904 23.3745ZM14.1001 16.3991C13.0578 14.7146 13.5739 12.5019 15.2524 11.4558C16.9308 10.4097 19.1355 10.9277 20.1778 12.6122C20.4776 13.0935 20.6407 13.6016 20.6907 14.1664C20.7673 15.0454 20.5608 15.9913 20.3577 16.8436C20.1912 17.5355 20.0113 18.214 19.8615 18.9025C19.1721 18.7287 18.4794 18.5883 17.7834 18.4312C16.9542 18.244 16.0383 18.0201 15.3024 17.5789C14.7995 17.2781 14.4132 16.8971 14.1035 16.3991H14.1001Z" fill="white"/>
</svg>
