<svg width="41" height="40" viewBox="0 0 41 40" fill="none" xmlns="http://www.w3.org/2000/svg">
<path d="M15.042 19.5106C16.317 22.1172 18.43 24.2206 21.0424 25.4837C21.2335 25.5743 21.445 25.6135 21.6559 25.5976C21.8668 25.5816 22.0699 25.511 22.2452 25.3927L26.0919 22.8277C26.262 22.7142 26.4577 22.645 26.6613 22.6263C26.865 22.6076 27.07 22.64 27.258 22.7205L34.4543 25.8047C34.6988 25.9085 34.9029 26.089 35.0358 26.3189C35.1688 26.5488 35.2235 26.8158 35.1915 27.0794C34.9641 28.8593 34.0957 30.4952 32.7489 31.6808C31.4022 32.8665 29.6694 33.5206 27.8751 33.5207C22.3332 33.5207 17.0182 31.3192 13.0995 27.4005C9.18077 23.4818 6.97925 18.1668 6.97925 12.6249C6.97934 10.8306 7.63346 9.09782 8.81913 7.75106C10.0048 6.4043 11.6407 5.53589 13.4205 5.30844C13.6842 5.27653 13.9511 5.33117 14.181 5.46414C14.411 5.59711 14.5914 5.8012 14.6953 6.04566L17.7821 13.2483C17.862 13.4346 17.8945 13.6377 17.8768 13.8396C17.8591 14.0415 17.7918 14.236 17.6808 14.4056L15.1247 18.3112C15.0084 18.4869 14.9396 18.6897 14.9251 18.9C14.9106 19.1102 14.9509 19.3206 15.042 19.5106V19.5106Z" stroke="white" stroke-width="2" stroke-linecap="round" stroke-linejoin="round"/>
<path d="M25.4167 8.93744V15.0833H31.5626" stroke="white" stroke-width="2" stroke-linecap="round" stroke-linejoin="round"/>
<path d="M25.4167 15.0833L32.7917 7.70825" stroke="white" stroke-width="2" stroke-linecap="round" stroke-linejoin="round"/>
</svg>
