<svg width="162" height="194" viewBox="0 0 162 194" fill="none" xmlns="http://www.w3.org/2000/svg">
<g clip-path="url(#clip0_29_1934)">
<path d="M34.4957 190.575C35.6761 190.575 36.6455 190.131 37.4171 189.252L38.8217 192.42C38.2612 192.909 37.5754 193.299 36.7774 193.577C35.9795 193.855 35.1881 193.994 34.4034 193.994C32.4053 193.994 30.6973 193.326 29.2729 191.983C27.8485 190.641 27.1429 189.034 27.1429 187.156C27.1429 185.278 27.8551 183.664 29.2729 182.328C30.6973 180.986 32.4053 180.318 34.4034 180.318C35.1816 180.318 35.9729 180.457 36.7774 180.728C37.5754 180.999 38.2612 181.382 38.8217 181.872L37.4171 185.059C36.6521 184.18 35.6761 183.737 34.4957 183.737C33.4868 183.737 32.6229 184.067 31.9041 184.735C31.1853 185.403 30.8292 186.21 30.8292 187.156C30.8292 188.101 31.1853 188.908 31.9041 189.576C32.6229 190.244 33.4868 190.575 34.4957 190.575Z" fill="white"/>
<path d="M41.1364 182.315C42.5212 180.979 44.183 180.311 46.1284 180.311C48.0738 180.311 49.7422 180.979 51.1204 182.315C52.5053 183.651 53.1977 185.264 53.1977 187.156C53.1977 189.047 52.5053 190.66 51.1204 191.996C49.7356 193.332 48.0738 194 46.1284 194C44.183 194 42.5146 193.332 41.1364 191.996C39.7515 190.66 39.0591 189.047 39.0591 187.156C39.0591 185.264 39.7515 183.651 41.1364 182.315ZM43.7412 189.576C44.4006 190.244 45.1986 190.574 46.135 190.574C47.0714 190.574 47.8693 190.244 48.5288 189.576C49.1882 188.908 49.518 188.101 49.518 187.156C49.518 186.21 49.1882 185.403 48.5288 184.735C47.8693 184.067 47.0714 183.737 46.135 183.737C45.1986 183.737 44.4006 184.067 43.7412 184.735C43.0817 185.403 42.752 186.21 42.752 187.156C42.752 188.101 43.0817 188.908 43.7412 189.576Z" fill="white"/>
<path d="M58.981 185.152C59.5943 185.231 60.1219 185.317 60.5637 185.403C61.0055 185.496 61.5067 185.641 62.0607 185.853C62.6146 186.058 63.0696 186.309 63.4125 186.593C63.7554 186.878 64.0522 187.261 64.2962 187.751C64.5402 188.24 64.6589 188.796 64.6589 189.43C64.6589 190.793 64.1775 191.89 63.2213 192.737C62.2585 193.577 60.7945 194 58.8228 194C58.1831 194 57.5566 193.934 56.9433 193.795C56.3301 193.656 55.8091 193.497 55.387 193.312C54.965 193.127 54.5891 192.935 54.266 192.75C53.9429 192.565 53.6923 192.4 53.5274 192.254L53.2966 192.062L54.6616 189.087C55.2222 189.53 55.8553 189.873 56.5543 190.125C57.2533 190.376 57.8072 190.515 58.2161 190.541L58.8294 190.581C60.2604 190.634 60.9792 190.369 60.9792 189.781C60.9792 189.523 60.8209 189.338 60.511 189.225C60.1944 189.113 59.5679 188.981 58.6183 188.829C55.2749 188.3 53.6065 186.871 53.6065 184.55C53.6065 183.32 54.0813 182.308 55.0309 181.508C55.9805 180.714 57.3588 180.311 59.1789 180.311C59.4097 180.311 59.713 180.324 60.0889 180.351C60.4648 180.377 61.0913 180.516 61.9683 180.781C62.8454 181.038 63.5378 181.402 64.0522 181.872L62.5948 184.669C62.5025 184.603 62.3706 184.517 62.1925 184.418C62.0145 184.312 61.599 184.173 60.9528 184.001C60.3065 183.829 59.6009 183.737 58.8294 183.737C57.8072 183.737 57.2928 183.942 57.2928 184.358C57.2928 184.576 57.405 184.742 57.6358 184.854C57.8666 184.967 58.315 185.066 58.981 185.158V185.152Z" fill="white"/>
<path d="M64.7644 180.622H75.2101V184.041H71.8271V193.683H68.1408V184.041H64.7578V180.622H64.7644Z" fill="white"/>
<path d="M82.2596 180.622L87.3439 193.683H83.8488L83.0245 191.507H78.0325L77.2082 193.683H73.4625L78.804 180.622H82.2596ZM79.1206 188.71H81.9628L80.545 184.973L79.1206 188.71Z" fill="white"/>
<path d="M101.219 189.292L104.391 193.683H100.091L97.4203 189.642H96.708V193.683H93.0217V180.622H98.8579C100.487 180.622 101.713 181.019 102.538 181.806C103.362 182.599 103.777 183.651 103.777 184.973C103.777 185.959 103.553 186.838 103.105 187.605C102.656 188.379 102.03 188.934 101.225 189.285L101.219 189.292ZM98.5083 186.534C98.97 186.534 99.3458 186.415 99.6426 186.183C99.9394 185.952 100.084 185.601 100.084 185.132C100.084 184.662 99.9394 184.332 99.6426 184.094C99.3458 183.856 98.97 183.737 98.5083 183.737H96.7015V186.534H98.5083Z" fill="white"/>
<path d="M108.941 193.683H105.255V180.622H108.941V193.683Z" fill="white"/>
<path d="M117.158 190.574C118.338 190.574 119.307 190.131 120.079 189.252L121.484 192.419C120.923 192.909 120.237 193.299 119.439 193.577C118.641 193.855 117.85 193.993 117.065 193.993C115.067 193.993 113.359 193.325 111.935 191.983C110.51 190.641 109.805 189.034 109.805 187.156C109.805 185.277 110.517 183.664 111.935 182.328C113.359 180.986 115.067 180.318 117.065 180.318C117.843 180.318 118.635 180.456 119.439 180.728C120.237 180.999 120.923 181.382 121.484 181.872L120.079 185.059C119.314 184.18 118.338 183.737 117.158 183.737C116.149 183.737 115.285 184.067 114.566 184.735C113.847 185.403 113.491 186.21 113.491 187.156C113.491 188.101 113.847 188.908 114.566 189.576C115.285 190.244 116.149 190.574 117.158 190.574Z" fill="white"/>
<path d="M130.063 180.622L135.147 193.683H131.652L130.828 191.507H125.836L125.012 193.683H121.266L126.607 180.622H130.063ZM126.924 188.71H129.766L128.348 184.973L126.924 188.71Z" fill="white"/>
<path d="M38.7558 132.909H39.4416L43.3719 138.715L47.3022 132.909H47.988V142.723H47.2626V134.198L43.3917 139.846H43.3389L39.468 134.198V142.723H38.769V132.909H38.7558Z" fill="white"/>
<path d="M54.4308 142.894C53.6857 142.894 53.013 142.756 52.4129 142.478C51.8128 142.2 51.2985 141.83 50.8698 141.373C50.4412 140.911 50.1115 140.375 49.8741 139.766C49.6433 139.158 49.5246 138.517 49.5246 137.849V137.822C49.5246 137.148 49.6433 136.506 49.8807 135.891C50.1181 135.276 50.4544 134.741 50.883 134.271C51.3117 133.802 51.826 133.431 52.4327 133.153C53.0394 132.876 53.712 132.737 54.4572 132.737C55.2024 132.737 55.8618 132.876 56.4685 133.153C57.0752 133.431 57.5896 133.802 58.0182 134.258C58.4469 134.714 58.7766 135.256 59.014 135.865C59.2448 136.473 59.3635 137.115 59.3635 137.783C59.3701 137.789 59.3701 137.802 59.3635 137.809C59.3635 138.484 59.2448 139.125 59.0074 139.74C58.77 140.355 58.4337 140.891 58.0051 141.36C57.5764 141.83 57.0554 142.2 56.4488 142.478C55.8355 142.756 55.1628 142.894 54.4308 142.894ZM54.4572 142.233C55.0639 142.233 55.6179 142.121 56.1256 141.889C56.6334 141.658 57.0686 141.347 57.4379 140.95C57.8072 140.553 58.0908 140.091 58.2952 139.555C58.4996 139.019 58.6052 138.45 58.6052 137.842V137.816C58.6052 137.207 58.4996 136.639 58.2886 136.096C58.0776 135.561 57.7874 135.091 57.4247 134.694C57.0554 134.297 56.6136 133.98 56.1058 133.749C55.5915 133.517 55.0309 133.398 54.4308 133.398C53.8307 133.398 53.2702 133.511 52.7624 133.742C52.2547 133.973 51.8194 134.284 51.4501 134.681C51.0808 135.078 50.7973 135.541 50.5929 136.076C50.3884 136.612 50.2829 137.181 50.2829 137.789V137.816C50.2829 138.424 50.3884 138.993 50.5995 139.535C50.8105 140.071 51.1006 140.54 51.4633 140.937C51.8326 141.334 52.2745 141.651 52.7822 141.883C53.2966 142.114 53.8571 142.233 54.4572 142.233Z" fill="white"/>
<path d="M60.0691 132.909H60.8802L64.7116 141.936L68.5562 132.909H69.3278L65.0216 142.795H64.3753L60.0691 132.909Z" fill="white"/>
<path d="M70.5544 132.909H71.2797V142.723H70.5544V132.909Z" fill="white"/>
<path d="M73.3504 132.909H74.0362L77.9665 138.715L81.8969 132.909H82.5827V142.723H81.8573V134.198L77.9863 139.846H77.9336L74.0626 134.198V142.723H73.3636V132.909H73.3504Z" fill="white"/>
<path d="M84.6468 132.909H85.3721V142.723H84.6468V132.909Z" fill="white"/>
<path d="M87.4428 132.909H94.4066V133.57H88.1682V137.452H93.7735V138.113H88.1682V142.068H94.4725V142.729H87.4428V132.915V132.909Z" fill="white"/>
<path d="M95.8706 132.909H96.5564L103.309 141.446V132.909H104.008V142.723H103.461L96.5696 134V142.723H95.8706V132.909Z" fill="white"/>
<path d="M108.69 133.57H105.281V132.909H112.832V133.57H109.422V142.723H108.697V133.57H108.69Z" fill="white"/>
<path d="M118.575 142.894C117.83 142.894 117.158 142.756 116.557 142.478C115.957 142.2 115.443 141.83 115.014 141.373C114.586 140.911 114.256 140.375 114.019 139.766C113.788 139.158 113.669 138.517 113.669 137.849V137.822C113.669 137.148 113.788 136.506 114.025 135.891C114.263 135.276 114.599 134.741 115.028 134.271C115.456 133.802 115.971 133.431 116.577 133.153C117.184 132.876 117.857 132.737 118.602 132.737C119.347 132.737 120.006 132.876 120.613 133.153C121.22 133.431 121.734 133.802 122.163 134.258C122.591 134.714 122.921 135.256 123.159 135.865C123.389 136.473 123.508 137.115 123.508 137.783C123.515 137.789 123.515 137.802 123.508 137.809C123.508 138.484 123.389 139.125 123.152 139.74C122.915 140.355 122.578 140.891 122.15 141.36C121.721 141.83 121.2 142.2 120.593 142.478C119.98 142.756 119.307 142.894 118.575 142.894ZM118.602 142.233C119.208 142.233 119.762 142.121 120.27 141.889C120.778 141.658 121.213 141.347 121.582 140.95C121.952 140.553 122.235 140.091 122.44 139.555C122.644 139.019 122.75 138.45 122.75 137.842V137.816C122.75 137.207 122.644 136.639 122.433 136.096C122.222 135.561 121.932 135.091 121.569 134.694C121.2 134.297 120.758 133.98 120.25 133.749C119.736 133.517 119.175 133.398 118.575 133.398C117.975 133.398 117.415 133.511 116.907 133.742C116.399 133.973 115.964 134.284 115.595 134.681C115.225 135.078 114.942 135.541 114.737 136.076C114.533 136.612 114.427 137.181 114.427 137.789V137.816C114.427 138.424 114.533 138.993 114.744 139.535C114.955 140.071 115.245 140.54 115.608 140.937C115.977 141.334 116.419 141.651 116.927 141.883C117.441 142.114 118.002 142.233 118.602 142.233Z" fill="white"/>
<path d="M105.551 63.9678C105.663 63.9943 105.775 64.0207 105.894 64.0472C120.132 67.3802 134.363 58.5121 137.693 44.2412C141.016 29.9636 132.173 15.6927 117.942 12.3531C103.916 9.06642 89.8894 17.6303 86.302 31.5309H86.2954L80.1295 58.0029L105.558 63.9612L105.551 63.9678Z" fill="white"/>
<path d="M75.5859 83.6483C75.5596 83.7607 75.5266 83.8798 75.5002 83.9922C72.1766 98.2697 81.0198 112.541 95.2507 115.88C109.488 119.213 123.719 110.345 127.049 96.0742C130.327 82.0083 121.787 67.9423 107.925 64.3449L81.5276 58.1484L75.5859 83.6483Z" fill="white"/>
<path d="M55.6508 52.7853C55.5387 52.7655 55.42 52.7324 55.3079 52.7059C41.0374 49.5317 26.8989 58.5585 23.7335 72.8691C20.5682 87.1797 29.5696 101.358 43.8401 104.532C57.8995 107.66 71.8271 98.9377 75.2628 84.9908H75.2694L81.1385 58.4527L55.6442 52.7787L55.6508 52.7853Z" fill="white"/>
<path d="M86.1701 32.5428C86.1965 32.4304 86.2228 32.3113 86.2492 32.1989C89.3618 17.8751 80.3076 3.7364 66.0239 0.615046C51.7403 -2.50631 37.6413 6.57339 34.5287 20.8972C31.4623 35.0094 40.2066 48.9431 54.1275 52.3356L80.6175 58.1352L86.1767 32.5428H86.1701Z" fill="white"/>
<path fill-rule="evenodd" clip-rule="evenodd" d="M63.7291 29.4346C62.7729 30.0297 61.9156 30.7241 61.1704 31.5044C56.8576 27.7681 52.5316 26.6769 48.1925 28.2442C47.5 27.7549 46.5504 27.702 45.7855 28.1781C44.7633 28.8129 44.4468 30.1686 45.0799 31.1936C45.7195 32.2187 47.0648 32.5361 48.087 31.9012C48.6475 31.5507 48.997 30.9886 49.0893 30.3868C52.624 29.17 56.2179 30.3339 59.7328 33.2635C56.8246 37.5289 56.5147 43.2823 59.4031 47.9511C62.3574 52.7257 66.9735 54.0814 72.2096 55.2452C62.608 54.0351 54.6551 57.2424 48.3375 64.8738C42.7454 72.459 44.7831 81.0559 51.0083 82.815C60.3131 85.2089 74.7155 78.4305 79.5426 63.8091C77.6566 72.9946 73.6735 81.704 79.2459 90.711C84.0664 98.4945 93.5691 101.596 101.839 98.6268L105.037 100.168L108.572 101.867L108.618 97.939L108.657 94.3812C114.981 88.2707 116.426 78.3512 111.605 70.5676C106.296 61.9905 97.3213 61.3557 88.7023 59.2395C103.204 60.5357 114.882 50.96 116.808 41.8538C117.995 35.4789 111.216 29.8313 101.957 31.4912C92.903 33.6471 86.7042 38.8515 83.3542 47.0848C84.3962 42.449 84.8314 38.0447 82.1804 33.7661C79.292 29.0973 74.0099 26.8224 68.9123 27.5432C67.8506 23.0861 68.4045 19.3431 71.0621 16.6979C71.649 16.883 72.3019 16.8169 72.8624 16.4664C73.8846 15.8316 74.2011 14.4759 73.568 13.4509C72.9284 12.4258 71.5831 12.1084 70.5609 12.7433C69.796 13.2194 69.4267 14.0923 69.552 14.9322C66.2284 18.1395 65.2788 22.5107 66.7098 28.0458C65.6876 28.3765 64.6853 28.8328 63.7291 29.428V29.4346ZM102.61 34.6192C91.5973 37.2776 86.2162 44.7504 84.3632 55.232C90.7005 56.8985 97.3147 56.343 103.23 53.2613C107.78 50.8873 112.561 46.4433 113.682 41.2256C113.808 40.5379 113.781 39.8501 113.583 39.1756C113.102 37.4959 111.704 36.2394 110.181 35.4789C107.866 34.3282 105.123 34.1827 102.604 34.6192H102.61ZM50.8566 66.8379C58.1172 58.1153 67.1846 56.6009 77.373 59.5834C76.0475 66.0179 72.625 71.7183 67.2373 75.6663C63.1026 78.7017 57.0027 81.0229 51.8458 79.7201C51.1732 79.5283 50.5731 79.1977 50.0587 78.7215C48.7728 77.5444 48.2716 75.7258 48.265 74.0263C48.265 71.434 49.3531 68.9012 50.8566 66.8379ZM108.051 71.1364C102.175 83.0002 92.8569 88.1914 81.4155 87.9136C80.5384 86.2273 80.0372 84.541 79.813 82.8414C90.0938 82.6431 98.5413 77.8288 104.166 67.4926C105.617 68.4449 106.923 69.622 108.051 71.1364ZM83.5323 91.0284C94.855 91.2466 104.074 86.0818 109.923 74.3635C112.977 81.4395 110.484 89.8843 103.758 94.077C97.0839 98.23 88.5309 96.7883 83.5389 91.0284H83.5323ZM101.324 65.9716C96.0618 74.6413 88.6166 78.986 79.6745 79.6473C79.9053 73.9337 82.398 67.9291 83.3213 61.0846C89.5069 63.214 96.0222 63.6636 101.318 65.9716H101.324ZM62.186 46.2118C59.2316 41.4438 60.6956 35.1747 65.4502 32.212C70.2048 29.2494 76.4564 30.7175 79.4107 35.4855C80.2548 36.8544 80.723 38.2828 80.8615 39.8898C81.0791 42.3763 80.4988 45.0612 79.9119 47.4683C79.4371 49.4258 78.9227 51.3502 78.5007 53.3076C76.5487 52.8183 74.5836 52.4149 72.6052 51.9718C70.251 51.4427 67.6594 50.8013 65.5755 49.558C64.1511 48.7116 63.0564 47.627 62.1794 46.2118H62.186Z" fill="#152787"/>
<path d="M5.94163 180.787L0 180.311L2.28828 156.603L8.30245 156.392C8.26288 156.656 8.23651 156.868 8.21672 157.027C8.19694 157.185 8.16397 157.397 8.11121 157.661C8.50029 157.37 8.9619 157.093 9.50924 156.828C10.05 156.564 10.6962 156.431 11.448 156.431C12.3119 156.431 13.0439 156.583 13.6572 156.894C14.2705 157.205 14.7716 157.642 15.1673 158.204C15.563 158.766 15.8531 159.44 16.0378 160.221C16.2224 161.008 16.3213 161.874 16.3213 162.82C16.3213 163.329 16.3081 163.931 16.2752 164.632C16.2422 165.333 16.1565 166.06 16.0114 166.801C15.8663 167.548 15.6553 168.282 15.3717 169.009C15.0882 169.737 14.6991 170.392 14.1913 170.973C13.6835 171.555 13.0505 172.025 12.2921 172.375C11.5272 172.733 10.5973 172.904 9.50265 172.904C8.70471 172.904 8.09802 172.819 7.68257 172.647C7.26712 172.475 6.95718 172.256 6.74615 171.992L5.94163 180.774V180.787ZM7.89359 168.685C8.30905 168.685 8.65196 168.553 8.93552 168.289C9.21908 168.024 9.44989 167.693 9.62794 167.29C9.80599 166.893 9.95107 166.457 10.0566 165.994C10.1621 165.524 10.2346 165.088 10.2808 164.684C10.327 164.281 10.3533 163.944 10.3665 163.673C10.3797 163.402 10.3863 163.256 10.3863 163.243C10.3863 162.31 10.2676 161.649 10.0236 161.259C9.77961 160.875 9.48946 160.684 9.15314 160.684C8.94212 160.684 8.7245 160.75 8.50029 160.882C8.27607 161.014 8.07164 161.206 7.8804 161.457C7.72873 162.608 7.59684 163.752 7.47814 164.883C7.35944 166.014 7.23415 167.158 7.09566 168.308C7.15501 168.408 7.25393 168.5 7.38582 168.573C7.51771 168.646 7.68916 168.685 7.90019 168.685H7.89359Z" fill="white"/>
<path d="M25.0524 156.471C26.0416 156.471 26.9516 156.524 27.7957 156.63C28.6398 156.736 29.3784 156.967 30.0181 157.311C30.6577 157.661 31.1721 158.171 31.5744 158.845C31.9766 159.52 32.2206 160.426 32.3261 161.57C32.6361 161.596 33.0054 161.59 33.4208 161.55C33.8363 161.51 34.2649 161.457 34.7068 161.391C35.142 161.325 35.5574 161.246 35.9531 161.153C36.3488 161.067 36.6653 160.975 36.9159 160.889L36.3554 164.433C35.6564 164.711 34.9573 164.916 34.2583 165.042C33.5593 165.167 32.8933 165.247 32.2536 165.266C32.1877 165.835 32.0887 166.424 31.9437 167.039C31.7986 167.654 31.5942 168.249 31.3238 168.824C31.0534 169.4 30.7105 169.948 30.295 170.464C29.873 170.98 29.3586 171.436 28.7519 171.827C28.1387 172.217 27.4133 172.528 26.5692 172.759C25.7251 172.984 24.7557 173.103 23.6544 173.103C22.5531 173.103 21.5706 173.023 20.7331 172.865C19.8956 172.706 19.1965 172.408 18.636 171.965C18.0755 171.522 17.6468 170.901 17.3633 170.101C17.0731 169.3 16.9346 168.249 16.9346 166.959C16.9346 166.113 16.9874 165.266 17.0863 164.42C17.1852 163.573 17.3567 162.76 17.5941 161.98C17.8315 161.199 18.1546 160.479 18.5569 159.811C18.9657 159.143 19.4669 158.561 20.067 158.065C20.6671 157.569 21.3793 157.185 22.2036 156.901C23.0279 156.617 23.9841 156.471 25.0722 156.471H25.0524ZM26.8132 163.772C26.2394 163.408 25.7185 163.005 25.2503 162.575C24.7821 162.145 24.3798 161.702 24.0435 161.246C23.7533 161.55 23.5093 161.92 23.3115 162.357C23.1137 162.793 22.9488 163.249 22.8169 163.719C22.685 164.195 22.5861 164.658 22.5267 165.101C22.4674 165.551 22.4344 165.934 22.4344 166.252C22.4344 166.391 22.4344 166.596 22.441 166.867C22.441 167.138 22.4938 167.416 22.5795 167.7C22.6652 167.984 22.8103 168.229 23.0081 168.441C23.206 168.652 23.4961 168.751 23.872 168.751C24.4326 168.751 24.9008 168.58 25.2766 168.229C25.6525 167.879 25.9493 167.455 26.1669 166.946C26.3845 166.444 26.5428 165.895 26.6351 165.313C26.7274 164.731 26.7868 164.215 26.8132 163.759V163.772Z" fill="white"/>
<path d="M44.7501 168.606C44.5391 169.228 44.2094 169.803 43.7676 170.332C43.3257 170.861 42.818 171.331 42.2508 171.727C41.6837 172.124 41.077 172.442 40.4308 172.666C39.7845 172.891 39.158 173.01 38.5447 173.01C37.76 173.01 37.0874 172.885 36.54 172.64C35.9927 172.395 35.5377 172.051 35.1816 171.608C34.8255 171.165 34.5683 170.63 34.4034 169.995C34.2385 169.36 34.1594 168.666 34.1594 167.912C34.1594 167.581 34.1792 167.257 34.2188 166.926L35.6827 152.047L35.9069 149.124L42.9235 148.013C41.9211 148.992 41.6178 150.923 41.3606 153.528C41.2155 155.003 41.0638 156.484 40.9122 157.986C40.7605 159.487 40.6154 160.968 40.4637 162.443C40.3121 163.917 40.167 165.3 40.0153 166.589C39.9757 166.781 39.956 166.94 39.956 167.065C39.956 167.257 39.9691 167.442 40.0021 167.627C40.0351 167.812 40.0878 167.971 40.1736 168.103C40.2527 168.236 40.3648 168.342 40.5099 168.427C40.655 168.507 40.833 168.553 41.044 168.553C41.2946 168.553 41.5386 168.5 41.7826 168.401C42.0266 168.302 42.2508 168.17 42.4553 168.004C42.6597 167.839 42.8377 167.66 42.9828 167.462C43.1279 167.264 43.2268 167.072 43.2928 166.887L44.7567 168.633L44.7501 168.606Z" fill="white"/>
<path d="M52.38 166.86C52.6174 167.151 52.8548 167.442 53.0988 167.733C53.3428 168.024 53.5802 168.315 53.8176 168.606C53.6329 169.148 53.3296 169.684 52.9207 170.2C52.5053 170.716 52.0239 171.185 51.4567 171.595C50.8962 172.005 50.2763 172.336 49.6037 172.58C48.931 172.825 48.2386 172.951 47.5396 172.951C46.7615 172.951 46.1086 172.832 45.5613 172.6C45.0205 172.369 44.5655 172.032 44.2094 171.595C43.8533 171.159 43.5961 170.643 43.4313 170.041C43.2664 169.439 43.1873 168.765 43.1873 168.024C43.1873 167.667 43.2004 167.336 43.2334 167.025C43.2664 166.715 43.2796 166.384 43.2796 166.027L44.2556 156.636L50.1576 156.392L49.03 167.105C49.03 167.297 49.0432 167.475 49.0761 167.647C49.1091 167.819 49.1619 167.971 49.2476 168.103C49.3267 168.236 49.4388 168.341 49.5839 168.414C49.729 168.487 49.907 168.527 50.1181 168.527C50.3686 168.527 50.6126 168.474 50.8566 168.375C51.1006 168.275 51.3248 168.143 51.5293 167.978C51.7337 167.812 51.9118 167.634 52.0568 167.435C52.2019 167.237 52.3008 167.045 52.3668 166.86H52.38ZM50.8039 152.106C50.8039 152.9 50.5203 153.542 49.9598 154.024C49.3993 154.507 48.6211 154.745 47.6385 154.745C46.656 154.745 45.8976 154.507 45.3305 154.024C44.7699 153.542 44.4864 152.907 44.4864 152.106C44.4864 151.306 44.7699 150.685 45.3305 150.202C45.891 149.713 46.6625 149.474 47.6385 149.474C48.6145 149.474 49.3993 149.719 49.9598 150.202C50.5203 150.691 50.8039 151.326 50.8039 152.106Z" fill="white"/>
<path d="M60.8802 163.163C60.8802 162.886 60.8671 162.615 60.8341 162.357C60.8011 162.099 60.7484 161.861 60.6758 161.656C60.6033 161.451 60.4978 161.279 60.3659 161.153C60.234 161.027 60.0691 160.961 59.8713 160.961C59.5613 160.961 59.2778 161.1 59.0404 161.378C58.7964 161.656 58.5986 162 58.4469 162.403L57.4379 172.719H51.5886L53.1647 156.636L59.0338 156.392L58.8623 157.985C59.3965 157.483 59.9702 157.119 60.5769 156.908C61.1836 156.696 61.7837 156.583 62.3838 156.583C63.8675 156.583 64.949 157 65.6283 157.833C66.3075 158.667 66.6372 159.811 66.6372 161.266C66.6372 161.781 66.6043 162.317 66.5317 162.866C66.4658 163.415 66.3866 163.95 66.3075 164.479C66.2284 165.002 66.1492 165.498 66.0833 165.961C66.0173 166.424 65.9778 166.82 65.9778 167.164C65.9778 167.508 66.0503 167.786 66.202 168.044C66.3537 168.302 66.624 168.434 67.0263 168.434C67.3033 168.434 67.5407 168.401 67.7385 168.328C67.9363 168.262 68.1078 168.156 68.2463 168.024C68.3848 167.892 68.5035 167.726 68.609 167.528C68.7145 167.33 68.8266 167.105 68.9387 166.854C69.1761 167.145 69.4135 167.435 69.6575 167.726C69.9015 168.017 70.1389 168.308 70.3763 168.599C70.1653 169.221 69.8685 169.796 69.486 170.332C69.1036 170.868 68.6617 171.337 68.154 171.727C67.6462 172.118 67.0988 172.428 66.5119 172.66C65.925 172.891 65.3315 173.004 64.738 173.004C63.8412 173.004 63.1092 172.878 62.5355 172.627C61.9617 172.375 61.5067 172.045 61.1704 171.641C60.8341 171.238 60.6033 170.775 60.478 170.259C60.3527 169.743 60.2933 169.214 60.2933 168.685C60.2933 168.216 60.3263 167.733 60.3857 167.224C60.445 166.721 60.511 166.225 60.5835 165.743C60.656 165.26 60.722 164.803 60.7813 164.36C60.8407 163.917 60.8736 163.521 60.8736 163.163H60.8802Z" fill="white"/>
<path d="M78.0127 166.86C78.2501 167.151 78.4875 167.442 78.7315 167.733C78.9755 168.024 79.2129 168.315 79.4503 168.606C79.2656 169.148 78.9623 169.684 78.5534 170.2C78.138 170.716 77.6566 171.185 77.0895 171.595C76.5289 172.005 75.9091 172.336 75.2364 172.58C74.5638 172.825 73.8714 172.951 73.1723 172.951C72.3942 172.951 71.7413 172.832 71.194 172.6C70.6533 172.369 70.1982 172.032 69.8421 171.595C69.486 171.159 69.2289 170.643 69.064 170.041C68.8991 169.439 68.82 168.765 68.82 168.024C68.82 167.667 68.8332 167.336 68.8662 167.025C68.8991 166.715 68.9123 166.384 68.9123 166.027L69.8883 156.636L75.7904 156.392L74.6627 167.105C74.6627 167.297 74.6759 167.475 74.7089 167.647C74.7418 167.819 74.7946 167.971 74.8803 168.103C74.9595 168.236 75.0716 168.341 75.2166 168.414C75.3617 168.487 75.5398 168.527 75.7508 168.527C76.0014 168.527 76.2454 168.474 76.4894 168.375C76.7334 168.275 76.9576 168.143 77.162 167.978C77.3664 167.812 77.5445 167.634 77.6896 167.435C77.8346 167.237 77.9336 167.045 77.9995 166.86H78.0127ZM76.4366 152.106C76.4366 152.9 76.1531 153.542 75.5925 154.024C75.032 154.507 74.2538 154.745 73.2713 154.745C72.2887 154.745 71.5303 154.507 70.9632 154.024C70.4027 153.542 70.1191 152.907 70.1191 152.106C70.1191 151.306 70.4027 150.685 70.9632 150.202C71.5237 149.713 72.2953 149.474 73.2713 149.474C74.2472 149.474 75.032 149.719 75.5925 150.202C76.1531 150.691 76.4366 151.326 76.4366 152.106Z" fill="white"/>
<path d="M92.5337 170.352C91.9996 170.848 91.4127 171.284 90.7928 171.661C90.2586 171.992 89.6388 172.289 88.9464 172.554C88.2539 172.819 87.5219 172.951 86.7636 172.951C85.5502 172.951 84.3566 172.911 83.1762 172.825C81.9958 172.746 80.9341 172.653 79.9976 172.547C78.8964 172.422 77.8544 172.283 76.8653 172.131L77.3928 167.257C77.7291 167.045 78.1973 166.668 78.7974 166.139C79.325 165.683 80.0108 165.028 80.8615 164.175C81.7122 163.322 82.7937 162.185 84.106 160.77H78.316L78.8238 156.504H90.5026L89.9619 161.642C89.2761 162.31 88.6496 162.952 88.0759 163.567C87.5087 164.182 86.9416 164.764 86.3679 165.319C85.8008 165.875 85.1941 166.404 84.561 166.9C83.9214 167.402 83.196 167.879 82.3651 168.335C83.4268 168.461 84.4423 168.553 85.3985 168.619C86.3613 168.685 87.2318 168.692 88.0033 168.639C88.7749 168.586 89.4409 168.474 89.9883 168.289C90.5356 168.103 90.9379 167.832 91.1885 167.462L92.5403 170.345L92.5337 170.352Z" fill="white"/>
<path d="M108.598 166.86C108.835 167.151 109.073 167.442 109.317 167.733C109.561 168.024 109.798 168.315 110.035 168.606C109.851 169.162 109.548 169.697 109.125 170.22C108.703 170.735 108.215 171.205 107.655 171.615C107.094 172.025 106.481 172.356 105.828 172.6C105.175 172.845 104.516 172.971 103.87 172.971C101.786 172.971 100.506 172.137 100.045 170.464C99.9459 170.643 99.847 170.808 99.7481 170.96C99.6492 171.112 99.5305 171.258 99.392 171.397C99.2931 171.496 99.1414 171.641 98.9436 171.827C98.7457 172.012 98.4952 172.19 98.1918 172.369C97.8951 172.547 97.539 172.7 97.1301 172.825C96.7212 172.951 96.253 173.017 95.7123 173.017C94.8616 173.017 94.1296 172.865 93.5163 172.561C92.903 172.256 92.4019 171.846 92.0062 171.317C91.6105 170.795 91.3204 170.173 91.1357 169.466C90.9511 168.758 90.8522 167.991 90.8522 167.171C90.8522 166.966 90.8522 166.662 90.8719 166.252C90.8851 165.842 90.9247 165.372 90.984 164.837C91.0434 164.308 91.1357 163.739 91.2478 163.13C91.3599 162.522 91.5182 161.914 91.716 161.312C91.9139 160.703 92.1645 160.122 92.4678 159.566C92.7646 159.011 93.1273 158.515 93.5427 158.085C93.9582 157.655 94.4527 157.311 95.0133 157.06C95.5738 156.808 96.2201 156.683 96.9455 156.683C97.3213 156.683 97.6774 156.722 98.0138 156.808C98.3501 156.888 98.66 156.994 98.9502 157.113C99.2403 157.232 99.4975 157.364 99.7349 157.503C99.9723 157.642 100.177 157.774 100.355 157.9L100.526 156.418L106.316 156.683L105.32 166.622C105.294 166.84 105.287 167.065 105.294 167.303C105.294 167.541 105.334 167.76 105.4 167.958C105.459 168.156 105.571 168.315 105.716 168.441C105.868 168.566 106.072 168.632 106.336 168.632C106.6 168.632 106.831 168.573 107.075 168.461C107.319 168.348 107.543 168.203 107.747 168.031C107.952 167.859 108.13 167.674 108.275 167.462C108.42 167.25 108.519 167.052 108.585 166.867L108.598 166.86ZM99.9921 161.133C99.9394 161.034 99.8536 160.908 99.7283 160.756C99.603 160.604 99.4052 160.532 99.1282 160.532C98.7919 160.532 98.4688 160.67 98.1654 160.948C97.8621 161.226 97.5917 161.609 97.3609 162.105C97.1301 162.601 96.9455 163.19 96.807 163.891C96.6685 164.585 96.6025 165.352 96.6025 166.186C96.6025 166.728 96.6421 167.158 96.7147 167.469C96.7872 167.779 96.8861 168.011 96.9982 168.163C97.1103 168.315 97.229 168.408 97.3543 168.441C97.4796 168.474 97.5917 168.487 97.6906 168.487C97.9874 168.487 98.3105 168.394 98.6534 168.203C98.9963 168.011 99.2469 167.693 99.4118 167.237L99.9921 161.147V161.133Z" fill="white"/>
<path d="M117.105 163.163C117.105 162.886 117.092 162.615 117.059 162.357C117.026 162.099 116.973 161.861 116.9 161.656C116.828 161.451 116.722 161.279 116.59 161.153C116.459 161.027 116.294 160.961 116.096 160.961C115.786 160.961 115.502 161.1 115.265 161.378C115.021 161.656 114.823 162 114.671 162.403L113.662 172.719H107.813L109.389 156.636L115.258 156.392L115.087 157.985C115.621 157.483 116.195 157.119 116.801 156.908C117.408 156.696 118.008 156.583 118.608 156.583C120.092 156.583 121.174 157 121.853 157.833C122.525 158.667 122.862 159.811 122.862 161.266C122.862 161.781 122.829 162.317 122.756 162.866C122.69 163.415 122.611 163.95 122.532 164.479C122.453 165.002 122.374 165.498 122.308 165.961C122.242 166.424 122.202 166.82 122.202 167.164C122.202 167.508 122.275 167.786 122.427 168.044C122.578 168.302 122.849 168.434 123.251 168.434C123.528 168.434 123.765 168.401 123.963 168.328C124.161 168.262 124.332 168.156 124.471 168.024C124.609 167.892 124.728 167.726 124.834 167.528C124.939 167.33 125.051 167.105 125.163 166.854C125.401 167.145 125.638 167.435 125.882 167.726C126.126 168.017 126.363 168.308 126.601 168.599C126.39 169.221 126.093 169.796 125.711 170.332C125.328 170.868 124.886 171.337 124.378 171.727C123.871 172.118 123.323 172.428 122.736 172.66C122.15 172.885 121.556 173.004 120.963 173.004C120.066 173.004 119.334 172.878 118.76 172.627C118.186 172.375 117.731 172.045 117.395 171.641C117.059 171.238 116.828 170.775 116.703 170.259C116.577 169.743 116.518 169.214 116.518 168.685C116.518 168.216 116.551 167.733 116.61 167.224C116.67 166.721 116.735 166.225 116.808 165.743C116.881 165.26 116.947 164.803 117.006 164.36C117.065 163.917 117.098 163.521 117.098 163.163H117.105Z" fill="white"/>
<path d="M142.441 166.86C142.678 167.151 142.916 167.442 143.16 167.733C143.404 168.024 143.641 168.315 143.878 168.606C143.667 169.228 143.344 169.796 142.922 170.325C142.5 170.848 142.006 171.304 141.452 171.688C140.898 172.071 140.304 172.375 139.678 172.587C139.051 172.799 138.431 172.911 137.825 172.911C136.802 172.911 135.978 172.693 135.358 172.256C134.738 171.82 134.29 171.225 134.02 170.464C133.921 170.63 133.822 170.788 133.729 170.947C133.637 171.106 133.518 171.251 133.38 171.39C133.281 171.503 133.129 171.648 132.932 171.827C132.734 172.005 132.483 172.184 132.18 172.356C131.883 172.534 131.527 172.686 131.118 172.812C130.709 172.938 130.241 173.004 129.7 173.004C128.863 173.004 128.144 172.858 127.537 172.567C126.931 172.276 126.429 171.873 126.027 171.364C125.625 170.854 125.328 170.239 125.137 169.532C124.946 168.824 124.847 168.057 124.847 167.237C124.847 167.098 124.847 166.84 124.866 166.457C124.88 166.08 124.913 165.617 124.972 165.081C125.031 164.546 125.11 163.957 125.216 163.329C125.322 162.694 125.473 162.059 125.664 161.411C125.856 160.763 126.1 160.141 126.383 159.546C126.673 158.944 127.023 158.409 127.445 157.946C127.86 157.476 128.348 157.106 128.909 156.828C129.463 156.55 130.102 156.412 130.828 156.412C131.468 156.412 131.989 156.478 132.404 156.603C132.819 156.729 133.149 156.874 133.406 157.033C133.664 157.192 133.861 157.351 134 157.509C134.138 157.668 134.257 157.78 134.356 157.84L135.141 147.881L141.043 147.385C140.891 148.688 140.746 152.126 140.601 153.588C140.456 155.056 140.311 156.537 140.159 158.038C140.007 159.54 139.862 161.014 139.711 162.476C139.559 163.937 139.414 165.319 139.282 166.622C139.242 166.801 139.223 166.979 139.223 167.171C139.223 167.336 139.236 167.502 139.269 167.667C139.302 167.832 139.361 167.978 139.447 168.103C139.533 168.229 139.645 168.335 139.783 168.414C139.928 168.5 140.12 168.546 140.357 168.54C140.594 168.533 140.95 168.434 141.161 168.328C141.339 168.236 141.504 168.123 141.656 167.991C141.841 167.826 142.006 167.647 142.131 167.449C142.263 167.25 142.362 167.059 142.421 166.873L142.441 166.86ZM134.006 161.133C133.954 161.034 133.868 160.908 133.743 160.756C133.617 160.604 133.42 160.531 133.143 160.531C132.806 160.531 132.483 160.67 132.18 160.948C131.876 161.226 131.606 161.609 131.375 162.105C131.144 162.601 130.96 163.19 130.821 163.891C130.683 164.585 130.617 165.352 130.617 166.186C130.617 166.728 130.656 167.158 130.729 167.469C130.802 167.779 130.9 168.011 131.013 168.163C131.125 168.315 131.243 168.408 131.369 168.441C131.494 168.474 131.606 168.487 131.705 168.487C132.002 168.487 132.325 168.394 132.668 168.203C133.011 168.011 133.261 167.693 133.426 167.237L134.006 161.146V161.133Z" fill="white"/>
<path d="M150.137 156.471C151.126 156.471 152.036 156.524 152.88 156.63C153.724 156.736 154.463 156.967 155.102 157.311C155.742 157.661 156.256 158.171 156.658 158.845C157.061 159.52 157.305 160.426 157.41 161.57C157.72 161.596 158.089 161.59 158.505 161.55C158.92 161.51 159.349 161.457 159.791 161.391C160.226 161.325 160.642 161.246 161.037 161.153C161.433 161.067 161.749 160.975 162 160.889L161.439 164.433C160.74 164.711 160.041 164.916 159.342 165.042C158.643 165.167 157.977 165.247 157.338 165.266C157.272 165.835 157.173 166.424 157.028 167.039C156.883 167.654 156.678 168.249 156.408 168.824C156.137 169.4 155.795 169.948 155.379 170.464C154.957 170.98 154.443 171.436 153.836 171.827C153.223 172.217 152.497 172.528 151.653 172.759C150.809 172.984 149.84 173.103 148.738 173.103C147.637 173.103 146.655 173.023 145.817 172.865C144.98 172.706 144.281 172.408 143.72 171.965C143.16 171.522 142.731 170.901 142.447 170.101C142.157 169.3 142.019 168.249 142.019 166.959C142.019 166.113 142.071 165.266 142.17 164.42C142.269 163.573 142.441 162.76 142.678 161.98C142.916 161.199 143.239 160.479 143.641 159.811C144.05 159.143 144.551 158.561 145.151 158.065C145.751 157.569 146.463 157.185 147.288 156.901C148.112 156.617 149.068 156.471 150.156 156.471H150.137ZM151.897 163.772C151.324 163.408 150.803 163.005 150.334 162.575C149.866 162.145 149.464 161.702 149.128 161.246C148.837 161.55 148.593 161.92 148.396 162.357C148.198 162.793 148.033 163.249 147.901 163.719C147.769 164.195 147.67 164.658 147.611 165.101C147.551 165.551 147.519 165.934 147.519 166.252C147.519 166.391 147.519 166.596 147.525 166.867C147.525 167.138 147.578 167.416 147.664 167.7C147.749 167.984 147.894 168.229 148.092 168.441C148.29 168.652 148.58 168.751 148.956 168.751C149.517 168.751 149.985 168.58 150.361 168.229C150.737 167.879 151.033 167.455 151.251 166.946C151.469 166.444 151.627 165.895 151.719 165.313C151.812 164.731 151.871 164.215 151.897 163.759V163.772Z" fill="white"/>
</g>
<defs>
<clipPath id="clip0_29_1934">
<rect width="162" height="194" fill="white"/>
</clipPath>
</defs>
</svg>
